<?xml version="1.0" standalone="no"?>
<!DOCTYPE svg PUBLIC "-//W3C//DTD SVG 1.1//EN" "http://www.w3.org/Graphics/SVG/1.1/DTD/svg11.dtd" >
<svg xmlns="http://www.w3.org/2000/svg">
<metadata>
<json>
<![CDATA[
{
	"fontFamily": "bizzafont",
	"majorVersion": 1,
	"minorVersion": 0,
	"version": "Version 1.0",
	"fontId": "bizzafont",
	"psName": "bizzafont",
	"subFamily": "Regular",
	"fullName": "bizzafont",
	"description": "Font generated by IcoMoon."
}
]]>
</json>
</metadata>
<defs>
<font id="bizzafont" horiz-adv-x="512">
<font-face units-per-em="512" ascent="480" descent="-32" />
<missing-glyph horiz-adv-x="512" />
<glyph unicode="&#x20;" horiz-adv-x="256" d="" />
<glyph unicode="&#xe600;" glyph-name="action" data-tags="action" d="M134.093 96c-1.118 0-2.227 0.307-3.2 0.904-1.792 1.118-2.893 3.072-2.893 5.197v243.806c0 2.116 1.101 4.070 2.893 5.188 1.8 1.11 4.045 1.212 5.939 0.264l243.806-121.907c2.057-1.032 3.362-3.141 3.362-5.453s-1.305-4.42-3.37-5.453l-243.806-121.907c-0.862-0.426-1.8-0.64-2.731-0.64zM140.194 336.043v-224.086l224.077 112.043-224.077 112.043z" />
<glyph unicode="&#xe601;" glyph-name="analytics" data-tags="analytics" d="M395.153 240.393c-7.535 0-14.37-2.987-19.43-7.825l-64.128 56.243c2.193 4.002 3.447 8.61 3.447 13.491 0 15.53-12.638 28.16-28.16 28.16-15.539 0-28.168-12.63-28.168-28.16 0-11.392 6.801-21.197 16.555-25.634l-40.234-106.624c-3.899 2.031-8.328 3.217-13.022 3.217-8.96 0-16.93-4.216-22.102-10.752l-59.161 34.875c2.679 4.327 4.267 9.395 4.267 14.822 0 15.522-12.63 28.168-28.168 28.168-15.522 0-28.16-12.638-28.16-28.168s12.638-28.16 28.16-28.16c8.32 0 15.786 3.652 20.941 9.413l59.409-35.046c-2.133-3.968-3.353-8.499-3.353-13.329 0-15.522 12.63-28.16 28.16-28.16 15.522 0 28.16 12.638 28.16 28.16 0 9.046-4.284 17.067-10.922 22.23l40.661 107.716c2.236-0.572 4.574-0.904 6.981-0.904 8.875 0 16.793 4.13 21.947 10.573l63.659-55.816c-3.439-4.677-5.512-10.436-5.512-16.665 0-15.522 12.638-28.16 28.177-28.16 15.522 0 28.151 12.647 28.151 28.16 0 15.53-12.621 28.177-28.151 28.177zM116.838 198.767c-7.424 0-13.466 6.033-13.466 13.466s6.041 13.465 13.466 13.465c7.433 0 13.474-6.033 13.474-13.465s-6.041-13.466-13.474-13.466zM221.994 131.627c-7.433 0-13.474 6.041-13.474 13.466s6.042 13.474 13.474 13.474c7.424 0 13.465-6.041 13.465-13.474 0-7.416-6.042-13.466-13.465-13.466zM286.882 288.819c-7.433 0-13.474 6.042-13.474 13.474s6.041 13.465 13.474 13.465c7.424 0 13.457-6.041 13.457-13.465s-6.033-13.474-13.457-13.474zM395.153 198.767c-7.433 0-13.466 6.033-13.466 13.466s6.033 13.465 13.466 13.465 13.466-6.033 13.466-13.465-6.033-13.466-13.466-13.466zM141.883 233.95c5.060 57.694 53.615 103.117 112.614 103.117 7.057 0 13.935-0.674 20.625-1.92 3.251 1.024 6.699 1.587 10.265 1.587 12.706 0 23.782-6.989 29.679-17.314 24.729-15.752 42.949-40.84 49.656-70.272l9.677-8.474c2.039 1.417 4.224 2.577 6.519 3.499-9.736 61.030-62.712 107.827-126.421 107.827-63.719 0-116.685-46.805-126.395-107.835 5.418-2.185 10.155-5.734 13.781-10.214zM363.981 195.721c-12.595-48.7-56.901-84.787-109.491-84.787-7.782 0-15.377 0.793-22.725 2.296-3.542-1.246-7.33-1.954-11.273-1.954-13.969 0-25.984 8.44-31.266 20.48-16.461 11.682-29.662 27.623-37.99 46.25l-14.097 8.329c-1.272-1.058-2.629-1.997-4.028-2.858 16.999-50.774 64.973-87.475 121.386-87.475 56.423 0 104.38 36.685 121.37 87.45-4.923 3.021-9.029 7.236-11.887 12.271z" />
<glyph unicode="&#xe602;" glyph-name="approve" data-tags="approve" d="M382.089 349.893c-5.957 3.917-14.455 2.056-18.321-3.857l-141.824-216.687-75.759 70.11c-5.171 4.779-13.944 4.438-18.757-0.751-2.415-2.62-3.669-5.99-3.525-9.523 0.145-3.541 1.656-6.81 4.267-9.224l89.942-82.423 3.2-1.314 1.775-0.256 3.899 0.034 5.077 2.116 2.304 1.656 1.476 2.304 150.076 229.393c4.019 6.144 2.304 14.413-3.832 18.423z" />
<glyph unicode="&#xe603;" glyph-name="at_the_door" data-tags="at_the_door" d="M350.814 252.441h-44.271c-1.733 0-3.149 1.425-3.149 3.157 0 1.741 1.416 3.166 3.149 3.166h44.271c1.733 0 3.149-1.425 3.149-3.166 0-1.732-1.416-3.157-3.149-3.157zM382.413 96h-252.826c-3.49 0-6.323 2.833-6.323 6.323v94.805c0 3.473 2.833 6.298 6.323 6.298h252.826c3.498 0 6.332-2.825 6.332-6.298v-94.805c0.009-3.49-2.825-6.323-6.332-6.323zM135.902 108.63h240.196v82.185h-240.196v-82.185zM344.49 132.352h-189.627c-1.741 0-3.157 1.416-3.157 3.158s1.417 3.158 3.157 3.158h189.627c1.741 0 3.158-1.416 3.158-3.158s-1.416-3.158-3.158-3.158zM170.778 159.411c0-3.492-2.831-6.323-6.323-6.323s-6.323 2.831-6.323 6.323c0 3.492 2.831 6.323 6.323 6.323s6.323-2.831 6.323-6.323zM262.315 212.933h-126.413c-3.482 0-6.315 2.833-6.315 6.332v126.413c0 3.49 2.833 6.323 6.315 6.323h126.413c3.498 0 6.315-2.841 6.315-6.323v-126.404c0-3.507-2.816-6.341-6.315-6.341zM142.225 225.587h113.775v113.767h-113.775v-113.767zM372.933 212.933h-82.168c-3.49 0-6.315 2.833-6.315 6.332v63.198c0 3.49 2.825 6.323 6.315 6.323h82.168c3.498 0 6.315-2.833 6.315-6.323v-63.198c0-3.498-2.816-6.332-6.315-6.332zM297.079 225.587h69.512v50.568h-69.512v-50.568zM322.363 192.401c-3.49 0-6.315 2.825-6.315 6.315v12.655c0 3.481 2.825 6.315 6.315 6.315 3.481 0 6.315-2.833 6.315-6.315v-12.63c0.026-3.515-2.808-6.341-6.315-6.341zM189.637 192.401c-3.49 0-6.323 2.825-6.323 6.315v12.655c0 3.481 2.833 6.315 6.323 6.315 3.482 0 6.315-2.833 6.315-6.315v-12.63c0-3.515-2.833-6.341-6.315-6.341z" />
<glyph unicode="&#xe604;" glyph-name="bizzabo_logo" data-tags="bizzabo_logo" d="M256 352c-70.69 0-128-57.31-128-128s57.31-128 128-128c70.698 0 128 57.31 128 128s-57.301 128-128 128zM201.139 283.469h109.73c3.158 0 6.058-1.733 7.56-4.514 1.493-2.774 1.349-6.161-0.392-8.798l-44.911-68.156c-1.647-2.5-4.394-3.857-7.176-3.857-1.622 0-3.269 0.452-4.728 1.416-3.959 2.611-5.060 7.936-2.44 11.896l36.139 54.853h-93.781c-4.744 0-8.584 3.84-8.584 8.584 0 4.736 3.849 8.576 8.584 8.576zM310.87 163.234h-109.73c-3.157 0-6.067 1.724-7.569 4.505-1.494 2.782-1.339 6.17 0.393 8.798l44.919 68.165c2.611 3.959 7.945 5.052 11.904 2.441s5.060-7.936 2.449-11.904l-36.147-54.844h93.781c4.736 0 8.584-3.849 8.584-8.593s-3.857-8.567-8.584-8.567z" />
<glyph unicode="&#xe605;" glyph-name="blogger_list" data-tags="blogger_list" d="M288.137 313.6h-112c-1.476 0-2.662 1.732-2.662 3.2s1.195 3.2 2.662 3.2h112c1.467 0 2.663-1.733 2.663-3.2s-1.195-3.2-2.663-3.2zM288.137 288h-112c-1.476 0-2.662 1.732-2.662 3.2s1.195 3.2 2.662 3.2h112c1.467 0 2.663-1.732 2.663-3.2s-1.195-3.2-2.663-3.2zM288.137 262.4h-112c-1.476 0-2.662 1.733-2.662 3.2s1.195 3.2 2.662 3.2h112c1.467 0 2.663-1.732 2.663-3.2s-1.195-3.2-2.663-3.2zM288.137 236.8h-112c-1.476 0-2.662 1.732-2.662 3.2s1.195 3.2 2.662 3.2h112c1.467 0 2.663-1.732 2.663-3.2s-1.195-3.2-2.663-3.2zM229.47 211.2h-53.333c-1.476 0-2.662 1.724-2.662 3.2s1.195 3.2 2.662 3.2h53.334c1.468 0 2.662-1.724 2.662-3.2s-1.203-3.2-2.662-3.2zM324.403 140.8h-19.2c-1.775 0-3.2-1.425-3.2-3.2s1.425-3.2 3.2-3.2h19.2c1.775 0 3.2 1.425 3.2 3.2s-1.425 3.2-3.2 3.2zM305.203 153.6h9.6c1.775 0 3.2 1.425 3.2 3.2s-1.425 3.2-3.2 3.2h-9.6c-1.775 0-3.2-1.425-3.2-3.2s1.425-3.2 3.2-3.2zM314.795 202.666c-29.457 0-53.325-23.885-53.325-53.334 0-29.457 23.868-53.334 53.325-53.334s53.342 23.877 53.342 53.334c0 29.466-23.885 53.334-53.342 53.334zM342.255 140.271c0-9.147-9.284-18.671-18.483-18.671h-17.937c-9.156 0-14.771 9.514-14.771 18.671v18.151c0 9.113 5.615 14.387 14.788 14.387h8.38c9.199 0 16.572-6.878 16.572-16 0.128-1.724 1.673-3.2 3.422-3.2h0.051c0 0 7.987 0 7.987-8.030l-0.009-5.308zM240.973 140.8h-84.31v198.4h147.192v-115.559c0 0.214 5.666 0.358 8.005 0.358 1.263 0-1.604-0.128 4.796-0.179v117.512c0 5.88-2.918 10.666-8.798 10.666h-149.325c-5.88 0-14.669-4.787-14.669-10.666v-202.666c0-5.88 8.781-10.666 14.669-10.666h84.736c-1.024 3.447-1.767 6.4-2.296 12.8z" />
<glyph unicode="&#xe606;" glyph-name="book" data-tags="book" d="M358.4 108.8v192h-5.137c0.017 0 0.913 0.008 1.613 0.026-0.486-0.017-0.401-0.026 3.524-0.026v12.8c-12.8 0-12.8 5.735-12.8 12.8s0 12.8 12.8 12.8v12.8c-3.925 0-4.010-0.009-3.515-0.026-0.7 0.017-1.604 0.025-1.622 0.025h-178.816c-14.080 0-20.847-11.529-20.847-25.6v-204.8c0-14.072 6.767-25.6 20.847-25.6h183.953v12.8zM161.647 326.4c0 7.066 5.743 12.8 12.8 12.8h157.175c-2.21-3.789-3.575-8.133-3.575-12.8s1.365-9.011 3.584-12.8h-157.184c-7.057 0-12.8 5.734-12.8 12.8zM192 108.8h-17.553c-7.057 0-8.047 5.735-8.047 12.8v182.775c0-2.218 3.37-3.575 8.047-3.575h17.553v-192zM204.8 108.8v192h64v-76.8l25.6 25.541 25.6-25.541v76.8h25.6v-192h-140.8z" />
<glyph unicode="&#xe607;" glyph-name="branding" data-tags="branding" d="M228.361 204.032l24.525-24.593c62.78 69.606 106.556 124.39 124.023 151.749-30.498-20.233-91.682-73.472-148.548-127.155zM228.232 178.338l0.179-0.256 0.248-0.231 11.921-11.93 8.175 8.969-24.9 24.909-8.79-8.354 13.167-13.107zM185.002 165.854c-5.905-5.589-10.522-13.517-15.863-22.681-6.263-10.76-13.465-23.117-24.84-35.046 29.508 0.478 57.608 10.641 68.062 20.463 8.243 7.748 13.159 17.775 13.159 26.872 0 3.498-0.93 8.166-4.241 12.237l-3.021 3.072c-4.429 3.678-8.67 5.581-12.979 5.581-5.999 0.009-12.834-3.55-20.275-10.496zM240.947 148.027l-3.439 3.439c-1.109-10.829-6.767-22.255-16.666-31.599-14.575-13.713-48.196-23.859-78.823-23.859-9.779 0-19.243 1.041-27.665 3.32 38.119 24.038 42.922 57.182 62.157 75.264 8.482 7.987 16.666 12.296 24.474 13.466l-3.507 3.507c0 0 182.247 176.154 199.091 159.309 16.060-16.059-155.623-202.846-155.623-202.846z" />
<glyph unicode="&#xe608;" glyph-name="camera_inverse" data-tags="camera_inverse" d="M416.913 296.781l-75.52 16.921c-0.623 0.171-2.526 0.982-2.969 1.451l-24.789 29.286c-3.055 3.456-8.67 7.56-13.295 7.56h-96.837c-4.625 0-9.984-4.104-13.048-7.56l-24.534-28.441c-0.461-0.47-1.834-1.715-2.44-1.869l-72.49-17.152c-5.957-1.365-8.397-7.202-8.397-13.303v-179.422c0-6.835 1.485-8.26 8.311-8.26h322.057c6.835 0 16.469 1.425 16.469 8.26v179.43c-0.017 6.101-6.545 11.725-12.519 13.099zM251.921 142.541c-38.742 0-70.204 31.428-70.204 70.195 0 38.775 31.463 70.195 70.204 70.195 38.776 0 70.195-31.419 70.195-70.195 0-38.767-31.419-70.195-70.195-70.195zM297.344 212.736c0-25.087-20.337-45.423-45.423-45.423s-45.423 20.337-45.423 45.423c0 25.087 20.337 45.423 45.423 45.423s45.423-20.337 45.423-45.423z" />
<glyph unicode="&#xe609;" glyph-name="camera" data-tags="camera" d="M256 148.403c-37.564 0-68.113 30.55-68.113 68.105 0 37.564 30.558 68.105 68.113 68.105 37.546 0 68.121-30.558 68.121-68.105 0-37.555-30.558-68.105-68.121-68.105zM256 268.16c-28.476 0-51.644-23.168-51.644-51.643s23.168-51.652 51.644-51.652c28.485 0 51.661 23.168 51.661 51.653 0 28.476-23.176 51.644-51.661 51.644zM416.563 96h-321.127c-6.809 0-12.347 5.538-12.347 12.348v178.901c0 6.084 4.48 11.707 10.427 13.056l74.308 16.887c0.606 0.171 1.98 0.973 2.432 1.442l24.465 27.52c3.038 3.439 8.388 5.846 12.996 5.846h96.563c4.591 0 9.95-2.406 13.005-5.837l24.465-27.529c0.443-0.461 1.826-1.271 2.44-1.433l74.299-16.887c5.939-1.365 10.419-6.981 10.419-13.065v-178.901c0.009-6.81-5.538-12.348-12.348-12.348zM99.55 112.469h312.901v172.322l-71.919 16.358c-3.891 0.887-8.431 3.584-11.085 6.545l-24.474 27.529c-0.068 0.017-0.64 0.282-0.913 0.333h-96.341c-0.060-0.034-0.631-0.298-0.862-0.478l-24.311-27.375c-2.645-2.978-7.194-5.666-11.085-6.545l-71.919-16.359v-172.33z" />
<glyph unicode="&#xe60a;" glyph-name="close" data-tags="close" d="M369.579 98.474l-239.095 239.095c-3.302 3.311-3.302 8.662 0 11.955 3.294 3.303 8.644 3.303 11.955 0l239.087-239.104c3.311-3.311 3.303-8.653 0-11.947s-8.653-3.303-11.947 0zM130.483 98.474c-3.302 3.303-3.302 8.644 0 11.947l239.095 239.095c3.303 3.303 8.653 3.303 11.947 0 3.303-3.294 3.303-8.644 0-11.955l-239.095-239.087c-3.303-3.303-8.653-3.294-11.946 0z" />
<glyph unicode="&#xe60b;" glyph-name="community_growth" data-tags="community_growth" d="M307.601 183.313c-2.782 0-5.060-2.313-5.060-5.154 0-2.833 2.279-5.154 5.060-5.154 28.997 0 52.634-26.889 52.634-56.534 0-5.299-4.199-12.399-9.387-12.399h-187.46c-5.162 0-9.369 7.099-9.369 12.399 0 29.645 23.612 55.134 52.633 55.134 2.782 0 5.043 3.021 5.043 5.871 0 2.833-2.253 5.512-5.043 5.512-34.594 0-62.728-30.233-62.728-65.57 0-10.949 8.73-21.41 19.456-21.41h187.452c10.735 0 19.464 10.599 19.464 21.581 0.017 35.311-28.109 65.724-62.695 65.724zM162.654 186.454c-16.162 5.418-28.126 24.269-28.126 46.72 0 26.641 16.853 48.316 37.572 48.316 2.458 0 4.864-0.333 7.21-0.904 0.819 3.507 1.784 6.954 2.935 10.317-3.286 0.862-6.656 1.339-10.137 1.339-13.142 0-25.421-6.298-34.569-17.741-8.866-11.085-13.739-25.762-13.739-41.319 0-24.175 11.955-44.979 29.022-54.11 3.081 2.688 6.383 5.146 9.831 7.382zM134.545 183.416c-26.641 0-48.325-21.47-48.325-47.053 0-8.55 7.219-16.137 16.111-16.137h21.265c0.145 0 0.512 8.081 1.221 8.081h-22.502c-2.961 0-5.376 4.096-5.376 6.946 0 19.899 16.853 37 37.581 37 2.961 0 5.368 2.739 5.368 5.589 0.025 2.91-2.389 5.572-5.342 5.572zM377.498 183.433c-2.952 0-5.368-2.432-5.368-5.265s2.406-5.368 5.368-5.368c20.719 0 37.563-17.587 37.563-37.512 0-2.833-2.415-6.929-5.368-6.929h-20.233c0.683 0 1.067-8.081 1.169-8.081h19.029c8.892 0 16.12 7.586 16.12 16.137 0.034 25.541-21.632 47.019-48.281 47.019zM341.675 352c-33.365 0-60.407-27.042-60.407-60.408 0-33.374 27.042-60.416 60.408-60.416 33.374 0 60.408 27.042 60.408 60.416 0 33.365-27.034 60.408-60.408 60.408zM375.825 289.067c-1.656-1.664-3.849-2.5-6.033-2.5s-4.369 0.837-6.033 2.5l-13.551 13.551v-42.658c0-4.719-3.815-8.534-8.534-8.534-4.728 0-8.534 3.815-8.534 8.534v42.658l-13.551-13.551c-3.345-3.337-8.721-3.337-12.066 0s-3.345 8.73 0 12.066l28.109 28.109c0.785 0.793 1.733 1.416 2.782 1.851 2.082 0.87 4.438 0.87 6.519 0 1.050-0.435 1.997-1.058 2.782-1.851l28.109-28.109c3.345-3.337 3.345-8.73 0-12.066zM257.127 173.884c26.282 0 48.955 19.089 59.461 46.584-3.353 1.186-6.579 2.56-9.677 4.173-8.866-23.731-27.827-40.183-49.784-40.183-30.387 0-55.108 31.488-55.125 70.221 0 38.724 24.721 70.221 55.125 70.221 5.393 0 10.59-1.007 15.505-2.858 1.442 3.243 3.132 6.341 4.975 9.318-6.442 2.646-13.312 4.122-20.48 4.122-17.758 0-34.398-8.559-46.831-24.098-12.16-15.198-18.858-35.345-18.858-56.713 0-44.552 29.465-80.785 65.69-80.785zM376.926 224.853c-2.423-17.861-12.485-32.401-25.711-37.777 3.337-2.151 6.57-4.471 9.6-7.082 15.966 9.413 27.050 29.226 27.349 52.215-3.507-2.756-7.245-5.231-11.238-7.356z" />
<glyph unicode="&#xe60c;" glyph-name="company_settings" data-tags="company_settings" d="M346.854 248.158h-12.339c-2.748 0-5.171 1.758-6.050 4.361l-3.524 9.711-9.029-4.506c-2.449-1.229-5.41-0.76-7.365 1.195l-8.712 8.712c-1.945 1.954-2.423 4.915-1.203 7.365l4.514 9.037-0.137 0.324-9.575 3.2c-2.611 0.87-4.369 3.319-4.369 6.050v12.339c0 2.756 1.75 5.179 4.369 6.058l9.711 3.515-4.514 9.037c-1.229 2.457-0.743 5.427 1.203 7.356l8.712 8.721c1.954 1.954 4.915 2.423 7.365 1.203l9.029-4.514 0.333 0.137 3.192 9.574c0.879 2.603 3.303 4.369 6.050 4.369h12.339c2.757 0 5.18-1.758 6.058-4.369l3.515-9.711 9.019 4.514c2.466 1.212 5.427 0.751 7.365-1.203l8.721-8.712c1.962-1.946 2.432-4.915 1.212-7.373l-4.531-9.029 0.145-0.333 9.575-3.192c2.611-0.879 4.369-3.311 4.369-6.058v-12.331c0-2.739-1.75-5.179-4.369-6.050l-9.719-3.524 4.531-9.029c1.221-2.466 0.743-5.436-1.212-7.373l-8.721-8.721c-1.954-1.945-4.923-2.406-7.365-1.194l-9.019 4.505-0.325-0.137-3.192-9.566c-0.862-2.602-3.294-4.361-6.058-4.361zM339.123 260.923h3.132l2.663 7.97c0.58 1.758 1.911 3.174 3.618 3.882l5.709 2.364c1.707 0.699 3.644 0.64 5.299-0.188l7.51-3.755 2.227 2.227-3.755 7.51c-0.845 1.655-0.896 3.584-0.179 5.308l2.363 5.709c0.709 1.715 2.125 3.021 3.874 3.609l7.97 2.663v3.123l-7.97 2.654c-1.75 0.589-3.166 1.911-3.874 3.618l-2.363 5.717c-0.709 1.715-0.657 3.644 0.179 5.299l3.755 7.518-2.227 2.21-7.51-3.755c-1.656-0.827-3.592-0.887-5.299-0.179l-5.709 2.372c-1.707 0.7-3.029 2.117-3.618 3.874l-2.663 7.97h-3.132l-2.663-7.97c-0.58-1.758-1.894-3.174-3.601-3.874l-5.717-2.372c-1.707-0.7-3.635-0.649-5.299 0.179l-7.518 3.755-2.21-2.21 3.755-7.518c0.819-1.656 0.887-3.584 0.179-5.282l-2.355-5.718c-0.709-1.715-2.116-3.038-3.874-3.627l-7.987-2.654v-3.123l7.987-2.663c1.758-0.589 3.166-1.911 3.874-3.618l2.355-5.709c0.709-1.715 0.632-3.635-0.179-5.291l-3.755-7.518 2.21-2.227 7.518 3.755c1.664 0.827 3.592 0.896 5.291 0.188l5.717-2.363c1.724-0.708 3.029-2.125 3.61-3.874l2.663-7.987zM340.702 281.063c-10.325 0-18.714 8.397-18.714 18.722 0 10.317 8.389 18.722 18.714 18.722 10.308 0 18.722-8.397 18.722-18.722-0.009-10.334-8.414-18.722-18.722-18.722zM340.702 305.724c-3.286 0-5.947-2.662-5.947-5.957 0-3.286 2.663-5.947 5.947-5.947 3.277 0 5.947 2.662 5.947 5.947 0 3.294-2.671 5.957-5.947 5.957zM313.046 192.392c-3.072 0-5.581-2.509-5.581-5.589 0-3.063 2.509-5.581 5.581-5.581 32.128 0 58.257-28.032 58.257-60.16 0-5.735-4.651-12.288-10.377-12.288h-207.496c-5.718 0-10.376 6.562-10.376 12.288 0 32.128 26.137 59.204 58.257 59.204 3.081 0 5.589 2.986 5.589 6.058s-2.509 5.82-5.589 5.82c-38.272 0-69.427-33.707-69.427-71.995 0-11.887 9.668-24.141 21.538-24.141h207.488c11.87 0 21.546 12.365 21.546 24.26 0.017 38.272-31.13 72.123-69.41 72.123zM321.476 245.674c-2.833-0.76-5.726-0.768-8.499-0.29-7.193-30.609-29.474-52.992-55.8-52.992-32.12 0-58.257 33.28-58.257 74.214 0 40.918 26.129 74.214 58.257 74.214 11.93 0 23.048-4.625 32.298-12.493-0.197 4.121 0.734 8.158 3.269 11.486-10.419 7.688-22.562 12.185-35.558 12.185-18.782 0-36.369-9.046-49.511-25.472-12.851-16.059-19.925-37.342-19.925-59.921 0-47.096 31.147-85.385 69.436-85.385 31.531 0 58.163 25.993 66.611 61.465-0.837 0.93-1.681 1.869-2.321 2.987zM146.935 186.666c3.277 2.885 6.767 5.47 10.402 7.825-17.066 5.717-29.721 25.651-29.721 49.357 0 28.16 17.817 51.064 39.714 51.064 2.611 0 5.154-0.35 7.629-0.964 0.862 3.712 1.886 7.347 3.089 10.905-3.464 0.913-7.040 1.417-10.718 1.417-13.893 0-26.863-6.656-36.531-18.756-9.378-11.716-14.532-27.221-14.532-43.665 0-25.549 12.638-47.531 30.669-57.182zM117.342 134.306h-23.766c-3.115 0-5.674 3.413-5.674 6.545 0 21.905 17.817 40.158 39.714 40.158 3.132 0 5.675 2.757 5.675 5.88 0 3.14-2.535 5.803-5.674 5.803-28.16 0-51.055-24.44-51.055-52.599 0-9.395 7.638-18.551 17.016-18.551h22.486c0.145 4.327 0.529 8.601 1.28 12.766zM384.409 192.691c-3.132 0-5.675-2.663-5.675-5.794 0-3.115 2.526-5.888 5.675-5.888 21.888 0 39.706-18.236 39.706-40.141 0-3.123-2.551-6.553-5.666-6.553h-21.41c0.734-4.164 1.118-8.431 1.246-12.766h20.13c9.395 0 17.015 9.173 17.015 18.56 0.034 28.143-22.87 52.582-51.021 52.582zM390.587 258.739l-6.759-6.639c0.35-2.688 0.572-5.435 0.572-8.243-0.017-22.801-11.699-42.163-27.793-48.691 3.533-2.27 6.946-4.728 10.154-7.483 17.11 10.095 28.971 31.454 28.971 56.175 0 6.442-0.819 12.732-2.346 18.714-0.7-1.382-1.639-2.671-2.799-3.832z" />
<glyph unicode="&#xe60d;" glyph-name="create_and_manage" data-tags="create_and_manage" d="M356.164 96h-222.063c-3.362 0-6.102 2.722-6.102 6.093v222.063c0 3.362 2.73 6.093 6.102 6.093h135.697c3.37 0 6.101-2.731 6.101-6.093 0-3.37-2.731-6.093-6.101-6.093h-129.595v-209.869h209.869v129.613c0 3.362 2.722 6.093 6.101 6.093 3.37 0 6.093-2.731 6.093-6.093v-135.714c-0.009-3.37-2.731-6.093-6.101-6.093zM232.798 157.688h-37c-3.37 0-6.093 2.714-6.093 6.101v37c0 1.613 0.64 3.166 1.784 4.31l135.697 135.697c14.779 14.779 31.539 14.933 46.046 0.418 14.49-14.498 14.353-31.283-0.418-46.055l-135.706-135.688c-1.143-1.135-2.696-1.784-4.309-1.784zM201.89 169.873h28.382l133.922 133.922c10.112 10.112 10.231 18.995 0.418 28.809-9.788 9.796-18.782 9.6-28.817-0.418l-133.905-133.922v-28.39zM339.507 295.161l-12.339 12.339 8.623 8.623 12.339-12.339-8.623-8.623z" />
<glyph unicode="&#xe60e;" glyph-name="create_promo" data-tags="create_promo" d="M93.995 352h7.757v-256h-7.757v256zM109.508 352h15.513v-193.946h-15.513v193.946zM163.806 352h15.513v-193.946h-15.513v193.946zM194.841 352h7.757v-193.946h-7.757v193.946zM256.896 352h7.757v-193.946h-7.757v193.946zM318.959 352h7.757v-100.847h-7.757v100.847zM342.229 352h15.514v-100.847h-15.514v100.847zM132.779 352h15.513v-193.946h-15.513v193.946zM303.445 237.645v114.355h-23.279v-135.493l23.279 21.137zM218.112 352h23.279v-193.946h-23.279v193.946zM349.875 235.35c-37.649 0-68.147-30.506-68.147-68.138s30.515-68.13 68.147-68.13 68.13 30.507 68.13 68.13c0 37.632-30.498 68.138-68.13 68.138zM384.674 159.479h-27.017v-27.077h-0.051c0-4.275-3.464-7.731-7.731-7.731-4.284 0-7.731 3.456-7.731 7.731 0 0.017 0 0.026 0 0.043v27.034h-27.067c-4.284 0-7.731 3.447-7.731 7.731 0 4.267 3.447 7.731 7.731 7.731h27.067v27c0 0.034 0 0.043 0 0.068 0 4.275 3.447 7.731 7.731 7.731 4.267 0 7.731-3.456 7.731-7.731h0.051v-27.067h27.017c4.284 0 7.731-3.464 7.731-7.731 0-4.275-3.447-7.731-7.731-7.731z" />
<glyph unicode="&#xe60f;" glyph-name="customization" data-tags="customization" d="M365.269 284.757v45.91c0 11.767-9.805 21.333-21.854 21.333s-21.863-9.566-21.863-21.333v-45.91c-11.238-7.048-18.722-19.337-18.722-33.322v-24.38c0-13.986 7.483-26.291 18.722-33.331v-76.391c0-11.759 9.813-21.334 21.863-21.334s21.854 9.575 21.854 21.334v76.382c11.247 7.040 18.731 19.345 18.731 33.331v24.38c0 13.994-7.483 26.282-18.731 33.331zM334.046 330.667c0 5.043 4.199 9.139 9.37 9.139s9.37-4.096 9.37-9.139v-40.73c-3.021 0.708-6.135 1.11-9.37 1.11s-6.349-0.401-9.37-1.11v40.73zM352.785 117.334c0-5.043-4.199-9.139-9.37-9.139s-9.37 4.096-9.37 9.139v71.202c3.021-0.7 6.135-1.11 9.37-1.11s6.349 0.409 9.37 1.11v-71.202zM371.507 227.047c0-15.121-12.613-27.426-28.091-27.426s-28.091 12.305-28.091 27.426v24.38c0 15.121 12.613 27.426 28.091 27.426s28.091-12.305 28.091-27.426v-24.38zM277.854 217.719v112.947c0 11.767-9.805 21.334-21.854 21.334-12.058 0-21.854-9.566-21.854-21.334v-112.947c-11.238-7.048-18.731-19.353-18.731-33.331v-24.389c0-13.995 7.483-26.282 18.731-33.331v-9.336c0-11.759 9.797-21.334 21.854-21.334 12.041 0 21.854 9.575 21.854 21.334v9.336c11.247 7.048 18.731 19.345 18.731 33.331v24.38c0 13.986-7.483 26.291-18.731 33.339zM246.631 330.667c0 5.043 4.198 9.139 9.369 9.139s9.37-4.096 9.37-9.139v-107.776c-3.021 0.7-6.135 1.109-9.37 1.109-3.226 0-6.349-0.41-9.369-1.109v107.776zM265.37 117.334c0-5.043-4.199-9.139-9.37-9.139s-9.369 4.096-9.369 9.139v4.156c3.021-0.709 6.144-1.11 9.369-1.11 3.234 0 6.349 0.401 9.37 1.11v-4.156zM284.091 160c0-15.113-12.613-27.426-28.091-27.426-15.488 0-28.091 12.305-28.091 27.426v24.38c0 15.113 12.613 27.426 28.091 27.426s28.091-12.305 28.091-27.426v-24.38zM190.439 309.137v21.529c0 11.767-9.797 21.334-21.854 21.334s-21.854-9.566-21.854-21.334v-21.529c-11.247-7.048-18.731-19.345-18.731-33.331v-24.38c0-13.986 7.483-26.282 18.731-33.339v-100.753c0-11.759 9.797-21.334 21.854-21.334s21.854 9.575 21.854 21.334v100.762c11.238 7.057 18.739 19.353 18.739 33.339v24.38c0 13.978-7.501 26.274-18.739 33.322zM159.224 330.667c0 5.043 4.198 9.139 9.361 9.139s9.369-4.096 9.369-9.139v-16.35c-3.012 0.708-6.136 1.11-9.369 1.11-3.226 0-6.349-0.41-9.361-1.11v16.35zM177.954 117.334c0-5.043-4.198-9.139-9.369-9.139-5.162 0-9.361 4.096-9.361 9.139v95.582c3.012-0.7 6.136-1.11 9.361-1.11s6.357 0.409 9.369 1.11v-95.582zM196.685 251.426c0-15.121-12.613-27.426-28.101-27.426-15.48 0-28.091 12.305-28.091 27.426v24.38c0 15.121 12.613 27.426 28.091 27.426 15.496 0 28.101-12.305 28.101-27.426v-24.38z" />
<glyph unicode="&#xe610;" glyph-name="customize_registration" data-tags="customize_registration" d="M329.233 230.093h-15.334c-2.68 0-5.069 1.673-5.905 4.165l-4.216 12.322-1.843 0.743-11.887-5.82c-2.389-1.178-5.317-0.726-7.211 1.135l-10.846 10.59c-1.911 1.861-2.363 4.694-1.178 7.040l5.947 11.606-0.751 1.792-12.621 4.105c-2.56 0.837-4.275 3.166-4.275 5.786v14.959c0 2.62 1.715 4.95 4.267 5.786l12.621 4.113 0.76 1.784-5.957 11.614c-1.195 2.346-0.726 5.179 1.186 7.040l10.846 10.582c1.903 1.869 4.796 2.313 7.202 1.144l11.896-5.811 1.843 0.734 4.207 12.322c0.853 2.491 3.234 4.164 5.913 4.164h15.317c2.697 0 5.077-1.673 5.922-4.173l4.207-12.322 1.834-0.734 11.887 5.811c2.406 1.152 5.317 0.708 7.219-1.144l10.846-10.582c1.903-1.851 2.363-4.693 1.169-7.040l-5.957-11.614 0.76-1.784 12.621-4.113c2.56-0.819 4.275-3.149 4.275-5.769v-14.959c0-2.628-1.715-4.95-4.267-5.786l-12.621-4.105-0.776-1.784 5.957-11.606c1.221-2.346 0.743-5.188-1.169-7.048l-10.846-10.59c-1.903-1.851-4.822-2.304-7.211-1.143l-11.896 5.82-1.817-0.743-4.224-12.322c-0.827-2.483-3.217-4.165-5.897-4.165zM318.396 242.287h6.323l3.695 10.794c0.572 1.673 1.861 3.021 3.524 3.703l7.091 2.867c1.656 0.683 3.558 0.614 5.18-0.179l10.428-5.086 4.48 4.378-5.205 10.163c-0.827 1.587-0.887 3.43-0.197 5.069l2.961 6.929c0.691 1.63 2.074 2.893 3.789 3.439l11.042 3.601v6.17l-11.059 3.601c-1.698 0.563-3.089 1.817-3.781 3.447l-2.952 6.92c-0.691 1.63-0.632 3.482 0.188 5.069l5.214 10.163-4.488 4.369-10.419-5.086c-1.63-0.785-3.507-0.853-5.188-0.179l-7.082 2.867c-1.673 0.674-2.961 2.031-3.524 3.704l-3.695 10.803h-6.323l-3.695-10.795c-0.572-1.681-1.869-3.029-3.524-3.703l-7.099-2.867c-1.664-0.674-3.558-0.615-5.171 0.179l-10.428 5.086-4.48-4.369 5.214-10.171c0.81-1.579 0.879-3.422 0.179-5.060l-2.944-6.921c-0.691-1.63-2.074-2.893-3.789-3.447l-11.050-3.618v-6.169l11.050-3.601c1.707-0.555 3.098-1.809 3.789-3.447l2.944-6.929c0.691-1.63 0.632-3.482-0.179-5.060l-5.205-10.163 4.48-4.369 10.419 5.095c1.613 0.802 3.524 0.862 5.18 0.179l7.091-2.867c1.664-0.683 2.961-2.031 3.524-3.703l3.695-10.803zM321.562 269.986c-11.896 0-21.555 9.438-21.555 21.052 0 11.606 9.668 21.069 21.555 21.069s21.572-9.447 21.572-21.069c0-11.606-9.685-21.052-21.572-21.052zM321.562 299.913c-5 0-9.079-3.985-9.079-8.875s4.087-8.866 9.079-8.866c5.017 0 9.079 3.976 9.079 8.866s-4.062 8.875-9.079 8.875zM284.091 217.907h-124.868c0 0 0 1.365 0 3.046s0 3.046 0 3.046h124.868c1.724 0 0-1.365 0-3.046s1.724-3.046 0-3.046zM227.899 187.426h-68.677c0 0 0 1.374 0 3.046 0 1.681 0 3.046 0 3.046h68.677c1.724 0 3.123-1.365 3.123-3.046 0-1.673-1.399-3.046-3.123-3.046zM237.79 315.426h-78.566c0 0 0-1.365 0-3.046s0-3.047 0-3.047h78.567c0.025 2.099-0.717 4.147 0 6.093zM237.79 280.098c-1.903 1.349 1.511 3.003 0 4.856h-78.566c0 0 0-1.365 0-3.046s0-3.047 0-3.047h78.567c0.042 0.409-0.060 0.819 0 1.238zM252.886 253.346v1.126h-93.662c0 0 0-1.365 0-3.047s0-3.047 0-3.047h92.783c0.264 0 0.188 0.085 0.435 0.145-2.458 1.272 0.444 2.935 0.444 4.822zM315.324 211.806v-81.604c0-1.613 0.205-4.565-1.015-5.64l-11.537-12.331c-1.416-1.246-4.019-4.036-5.93-4.036h-156.347v231.612h116.472c0.555 0.683 1.144 1.357 1.792 1.988l10.471 10.206h-125.611c-6.895 0-15.616-2.423-15.616-9.139v-231.62c0-6.733 8.721-15.24 15.616-15.24h153.225c5.009 0 11.341 3.909 15.070 7.168l10.752 11.571c3.891 3.413 5.146 10.351 5.146 15.462v81.605h-12.485z" />
<glyph unicode="&#xe611;" glyph-name="dashboard" data-tags="dashboard" d="M181.435 219.733h-19.303c-2.355 0-4.267 1.911-4.267 4.267s1.911 4.267 4.267 4.267h19.303c2.355 0 4.267-1.911 4.267-4.267s-1.911-4.267-4.267-4.267zM349.866 219.733h-19.303c-2.355 0-4.267 1.911-4.267 4.267s1.911 4.267 4.267 4.267h19.303c2.355 0 4.267-1.911 4.267-4.267s-1.911-4.267-4.267-4.267zM325.393 287.36l-13.654-13.654c-1.664-1.664-4.369-1.664-6.033 0s-1.664 4.369 0 6.033l13.654 13.654c1.664 1.664 4.369 1.664 6.033 0s1.664-4.369 0-6.033zM192.631 293.401l13.654-13.654c1.664-1.664 1.664-4.369 0-6.033s-4.369-1.664-6.033 0l-13.654 13.654c-1.664 1.664-1.664 4.369 0 6.033s4.369 1.664 6.033 0zM255.992 294.298c-2.355 0-4.267 1.911-4.267 4.267v19.311c0 2.355 1.911 4.267 4.267 4.267s4.266-1.912 4.266-4.267v-19.311c0-2.355-1.911-4.267-4.267-4.267zM256 352c-70.69 0-128-57.31-128-128s57.31-128 128-128 128 57.31 128 128-57.31 128-128 128zM256 334.933c61.269 0 110.933-49.664 110.933-110.933 0-18.031-4.403-35.012-12.032-50.065h-69.18c-0.026 0.111-0.017 0.222-0.051 0.333l-25.6 80.384c-1.135 3.542-6.998 3.542-8.132 0l-25.6-80.384c-0.034-0.111-0.025-0.222-0.051-0.333h-69.189c-7.629 15.053-12.032 32.034-12.032 50.065 0 61.269 49.664 110.933 110.934 110.933zM277.325 172.33c-0.333-11.461-9.771-20.694-21.325-20.694s-20.992 9.233-21.325 20.702l21.325 66.952 21.325-66.961zM264.534 169.668c0-4.713-3.82-8.534-8.534-8.534s-8.534 3.82-8.534 8.534c0 4.713 3.821 8.534 8.534 8.534s8.534-3.82 8.534-8.534z" />
<glyph unicode="&#xe612;" glyph-name="date" data-tags="date" d="M384.615 312.619h-54.161v32.614c0 3.738-3.021 6.767-6.767 6.767s-6.767-3.029-6.767-6.767v-32.614h-115.081v32.614c0 3.738-3.030 6.767-6.767 6.767s-6.767-3.029-6.767-6.767v-32.614h-60.928c-7.475 0-13.543-4.839-13.543-12.305v-189.551c0-7.458 6.067-14.762 13.543-14.762h257.237c7.466 0 13.543 7.305 13.543 14.762v189.543c0 7.466-6.075 12.313-13.543 12.313zM384.598 109.534h-257.212v189.543h60.928v-21.538c0-3.738 3.021-6.767 6.767-6.767 3.738 0 6.767 3.030 6.767 6.767v21.538h115.080v-21.538c0-3.738 3.021-6.767 6.767-6.767s6.767 3.030 6.767 6.767v21.538h54.161l-0.026-189.543zM230.579 163.942v4.156c0 1.69 0.845 2.543 2.543 2.543h12.211c1.69 0 2.552-0.853 2.552-2.543v-5.205h14.191c1.69 0 2.543 0.845 2.543 2.543v18.031c0 3.387-1.69 5.086-5.086 5.086h-14.942c-1.775 0-2.662 0.853-2.662 2.543v11.656c0 1.69 0.887 2.543 2.662 2.543h14.942c1.656 0 2.91 0.435 3.781 1.297 0.87 0.87 1.297 2.082 1.297 3.661v18.159c0 1.698-0.853 2.543-2.543 2.543h-14.191v-5.206c0-1.69-0.862-2.535-2.552-2.535h-12.211c-1.698 0-2.543 0.845-2.543 2.535v5.206c0 5.453 1.519 9.6 4.54 12.459 3.030 2.841 7.433 4.275 13.209 4.275h14.72c5.982 0 10.53-1.553 13.671-4.65 3.123-3.089 4.702-7.646 4.702-13.637v-23.296c0-2.313-0.743-4.31-2.245-5.982-1.502-1.681-3.397-2.697-5.7-3.063v-0.248c2.304-0.375 4.199-1.382 5.7-3.029 1.502-1.664 2.245-3.652 2.245-5.957v-23.365c0-5.99-1.579-10.538-4.702-13.645-3.132-3.098-7.68-4.651-13.671-4.651h-14.72c-5.734 0-10.129 1.536-13.175 4.591-3.030 3.038-4.566 7.441-4.566 13.184z" />
<glyph unicode="&#xe613;" glyph-name="discount" data-tags="discount" d="M256.009 96c-6.033 0-11.699 2.346-15.949 6.596l-4.165 4.164-5.308-2.543c-2.935-1.408-6.101-2.108-9.421-2.108-8.857 0-16.956 4.983-20.65 12.723l-5.768 12.083h-13.381c-12.433 0-22.536 10.103-22.536 22.528v5.897l-5.538 1.945c-5.709 2.022-10.266 6.135-12.851 11.554-2.602 5.47-2.918 11.571-0.913 17.221l4.446 12.603-9.464 9.498c-4.25 4.207-6.597 9.873-6.597 15.881 0 6.059 2.355 11.733 6.63 15.983l4.147 4.147-2.535 5.308c-5.351 11.213-0.606 24.704 10.573 30.071l12.101 5.768v13.363c0 12.433 10.12 22.545 22.545 22.545h5.871l1.954 5.555c3.149 8.84 11.981 14.993 21.478 14.993 2.535 0 5.009-0.427 7.356-1.28l12.561-4.421 9.464 9.464c4.088 4.113 9.899 6.459 15.931 6.459 6.050 0 11.87-2.363 15.966-6.477l4.113-4.13 5.325 2.56c2.952 1.391 6.118 2.117 9.438 2.117 8.841 0 16.947-5.009 20.659-12.758l5.752-12.058h13.389c12.425 0 22.536-10.112 22.536-22.545v-5.88l5.521-1.946c11.742-4.198 17.894-17.109 13.747-28.791l-4.438-12.595 9.455-9.464c8.772-8.806 8.772-23.1 0.009-31.855l-4.173-4.181 2.543-5.299c5.351-11.195 0.598-24.695-10.582-30.080l-12.091-5.76v-13.363c0-12.408-10.112-22.528-22.536-22.528h-5.888l-1.954-5.563c-3.123-8.832-11.947-14.993-21.478-14.993-2.517 0-4.95 0.426-7.296 1.246l-12.621 4.421-9.498-9.447c-4.173-4.284-9.83-6.63-15.88-6.63zM238.405 121.514l10.274-10.291c3.899-3.909 10.752-3.899 14.609-0.017l14.925 14.882 19.874-6.971c5.197-1.826 11.461 1.322 13.218 6.298l4.805 13.713h14.541c5.7 0 10.325 4.634 10.325 10.317v21.051l19.021 9.071c5.128 2.474 7.305 8.687 4.847 13.841l-6.255 13.073 10.265 10.274c4.036 4.019 4.027 10.59-0.009 14.643l-14.873 14.882 6.981 19.848c1.911 5.376-0.93 11.324-6.323 13.244l-13.662 4.796v14.515c0 5.709-4.642 10.351-10.342 10.351h-21.086l-9.054 18.995c-2.27 4.736-9.019 7.185-13.841 4.898l-13.107-6.28-10.223 10.257c-3.661 3.67-10.982 3.67-14.643 0.008l-14.917-14.899-19.823 6.989c-5.248 1.894-11.469-1.305-13.261-6.298l-4.796-13.671h-14.515c-5.709 0-10.351-4.633-10.351-10.351v-21.051l-19.029-9.080c-5.129-2.457-7.304-8.661-4.839-13.824l6.263-13.082-10.266-10.266c-1.971-1.954-3.055-4.565-3.055-7.347 0-2.747 1.075-5.333 3.021-7.27l14.907-14.933-7.006-19.865c-0.93-2.594-0.768-5.393 0.427-7.894 1.186-2.5 3.277-4.386 5.897-5.317l13.671-4.787v-14.533c0-5.7 4.633-10.342 10.343-10.342h21.060l9.088-19.012c2.262-4.719 9.019-7.168 13.815-4.881l13.099 6.315zM292.685 237.235c-16.572 0-27.204-13.142-27.204-30.49 0.137-18.236 11.81-29.269 26.479-29.269 14.029 0 26.88 10.582 26.88 30.925 0 16.563-9.43 28.834-26.154 28.834zM292.394 189.858c-6.579 0-10.001 7.33-9.856 17.468 0 9.736 2.986 17.502 9.856 17.502 7.014 0 9.549-7.611 9.549-17.502 0-10.897-3.132-17.467-9.549-17.467zM278.938 277.581l-55.731-100.412h12.091l55.902 100.411h-12.262zM248.917 248.738c0 16.589-9.429 28.843-26.163 28.843-16.571 0-27.187-13.159-27.187-30.49 0-18.244 11.648-29.295 26.453-29.295 14.029 0 26.897 10.624 26.897 30.942zM222.447 230.213c-6.579 0-10.001 7.321-10.001 17.477 0 9.728 3.149 17.476 9.873 17.476 7.023 0 9.72-7.62 9.72-17.476-0.025-10.888-3.157-17.476-9.591-17.476z" />
<glyph unicode="&#xe614;" glyph-name="down_arrow" data-tags="down_arrow" d="M128 352h256l-128-256z" />
<glyph unicode="&#xe615;" glyph-name="down" data-tags="down" d="M379.981 271.846l-114.134-115.2c-0.017-0.009-0.026-0.017-0.043-0.034-0.026-0.017-0.034-0.043-0.051-0.060-0.392-0.392-0.837-0.674-1.246-1.015-0.298-0.231-0.563-0.503-0.887-0.717-0.478-0.307-1.007-0.546-1.519-0.802-0.298-0.154-0.572-0.341-0.887-0.469-0.589-0.231-1.186-0.384-1.792-0.529-0.264-0.077-0.503-0.179-0.76-0.214-0.7-0.154-1.408-0.188-2.125-0.222-0.171 0-0.341-0.043-0.512-0.043-0.743 0-1.476 0.086-2.227 0.188-0.137 0.034-0.281 0.034-0.418 0.060-0.7 0.137-1.382 0.35-2.056 0.589-0.171 0.068-0.35 0.094-0.52 0.154-0.571 0.239-1.109 0.555-1.655 0.87-0.256 0.154-0.529 0.248-0.776 0.426-0.393 0.256-0.743 0.598-1.126 0.904-0.341 0.273-0.708 0.512-1.024 0.827-0.017 0.017-0.025 0.043-0.051 0.060-0.008 0.017-0.025 0.026-0.042 0.034l-114.125 115.2c-5.385 5.435-5.342 14.216 0.085 19.601 2.705 2.68 6.238 4.011 9.77 4.011 3.567 0 7.134-1.365 9.847-4.105l104.294-105.259 104.277 105.259c2.714 2.747 6.281 4.104 9.848 4.104 3.533 0 7.048-1.331 9.762-4.011 5.445-5.393 5.487-14.174 0.094-19.609z" />
<glyph unicode="&#xe616;" glyph-name="edit_profile" data-tags="edit_profile" d="M304.341 195.123c-3.021 0-5.495-2.457-5.495-5.495 0-3.021 2.466-5.487 5.495-5.487 31.565 0 57.259-29.755 57.259-61.337 0-5.615-4.582-14.267-10.197-14.267h-203.929c-5.624 0-10.197 8.653-10.197 14.267 0 31.574 25.694 59.281 57.258 59.281 3.021 0 5.495 3.49 5.495 6.519s-2.466 5.99-5.495 5.99c-37.624 0-68.233-35.192-68.233-72.815 0-11.682 9.506-25.788 21.171-25.788h203.929c11.665 0 21.171 14.37 21.171 26.035 0 37.632-30.609 73.096-68.233 73.096zM340.933 250.309h-12.16c-2.697 0-5.094 1.732-5.939 4.292l-3.49 9.575-8.901-4.446c-2.415-1.203-5.334-0.734-7.245 1.186l-8.593 8.593c-1.911 1.92-2.373 4.821-1.178 7.245l4.446 8.9-0.128 0.341-9.447 3.14c-2.56 0.854-4.293 3.26-4.293 5.957v12.152c0 2.696 1.724 5.094 4.293 5.957l9.575 3.481-4.446 8.9c-1.203 2.415-0.734 5.325 1.178 7.245l8.593 8.593c1.911 1.911 4.822 2.381 7.245 1.178l8.901-4.446 0.341 0.136 3.149 9.438c0.853 2.56 3.251 4.284 5.939 4.284h12.168c2.697 0 5.094-1.732 5.947-4.284l3.473-9.583 8.892 4.446c2.423 1.203 5.342 0.734 7.245-1.178l8.601-8.593c1.92-1.911 2.389-4.83 1.186-7.245l-4.446-8.892 0.137-0.341 9.43-3.149c2.56-0.853 4.301-3.251 4.301-5.957v-12.151c0-2.696-1.724-5.094-4.301-5.957l-9.566-3.49 4.446-8.892c1.212-2.415 0.734-5.342-1.186-7.254l-8.601-8.593c-1.92-1.911-4.83-2.363-7.245-1.178l-8.892 4.454-0.341-0.137-3.132-9.438c-0.853-2.56-3.251-4.292-5.957-4.292zM333.303 262.852h3.106l2.62 7.868c0.572 1.723 1.877 3.114 3.541 3.814l5.623 2.338c1.69 0.7 3.575 0.632 5.205-0.188l7.416-3.704 2.219 2.202-3.729 7.407c-0.819 1.63-0.887 3.533-0.179 5.222l2.338 5.632c0.691 1.673 2.082 2.969 3.798 3.55l7.859 2.62v3.106l-7.859 2.629c-1.715 0.571-3.106 1.869-3.798 3.541l-2.338 5.632c-0.7 1.681-0.64 3.584 0.179 5.222l3.729 7.407-2.219 2.202-7.416-3.712c-1.63-0.81-3.524-0.879-5.205-0.179l-5.623 2.329c-1.681 0.7-2.978 2.091-3.541 3.815l-2.62 7.859h-3.106l-2.637-7.859c-0.572-1.724-1.869-3.123-3.541-3.806l-5.623-2.338c-1.69-0.691-3.575-0.632-5.205 0.188l-7.416 3.703-2.193-2.202 3.704-7.416c0.819-1.622 0.887-3.524 0.179-5.197l-2.329-5.632c-0.691-1.681-2.082-2.986-3.806-3.55l-7.868-2.628v-3.115l7.868-2.62c1.724-0.58 3.115-1.877 3.806-3.558l2.329-5.632c0.7-1.681 0.632-3.575-0.179-5.197l-3.712-7.407 2.193-2.202 7.416 3.712c1.63 0.827 3.515 0.887 5.205 0.179l5.623-2.329c1.673-0.7 2.978-2.090 3.541-3.806l2.646-7.902zM334.856 282.718c-10.163 0-18.44 8.269-18.44 18.432s8.269 18.432 18.44 18.432c10.163 0 18.423-8.269 18.423-18.432s-8.26-18.432-18.423-18.432zM334.856 307.029c-3.251 0-5.888-2.637-5.888-5.888 0-3.243 2.646-5.88 5.888-5.88s5.88 2.637 5.88 5.88c0.009 3.251-2.637 5.888-5.88 5.888zM312.627 247.493c-2.782-0.743-5.615-0.751-8.354-0.281-7.065-30.080-28.971-52.087-54.844-52.087-31.565 0-57.258 32.726-57.267 72.935 0 40.226 25.694 72.943 57.267 72.943 11.733 0 22.647-4.54 31.744-12.28-0.188 4.054 0.717 8.022 3.217 11.29-10.248 7.56-22.169 11.989-34.961 11.989-18.466 0-35.746-8.891-48.657-25.037-12.621-15.778-19.584-36.694-19.584-58.897 0-46.267 30.618-83.909 68.241-83.909 30.985 0 57.173 25.549 65.459 60.399-0.802 0.913-1.63 1.834-2.262 2.935z" />
<glyph unicode="&#xe617;" glyph-name="edit" data-tags="edit" d="M184.79 96h-48.76c-4.438 0-8.022 3.575-8.022 8.030v48.76c0 2.134 0.845 4.173 2.346 5.675l178.782 178.774c19.473 19.481 41.549 19.686 60.663 0.563 19.089-19.106 18.901-41.216-0.546-60.68l-178.791-178.774c-1.494-1.485-3.542-2.346-5.674-2.346zM144.069 112.060h37.393l176.427 176.435c13.32 13.329 13.483 25.029 0.546 37.957-12.902 12.919-24.738 12.647-37.965-0.546l-176.401-176.435v-37.41zM325.371 277.143l-16.269 16.244 11.36 11.377 16.269-16.244-11.36-11.377z" />
<glyph unicode="&#xe619;" glyph-name="event" data-tags="event" d="M282.906 156.954c-0.964 0-1.945 0.231-2.833 0.709l-24.072 12.638-24.081-12.638c-2.040-1.084-4.523-0.904-6.417 0.461-1.877 1.365-2.808 3.678-2.423 5.957l4.6 26.812-19.473 18.986c-1.655 1.622-2.262 4.045-1.544 6.247s2.629 3.815 4.923 4.147l26.905 3.909 12.041 24.397c2.056 4.155 8.866 4.155 10.931 0l12.041-24.397 26.906-3.909c2.304-0.333 4.199-1.937 4.923-4.147 0.709-2.21 0.128-4.625-1.545-6.247l-19.473-18.986 4.591-26.812c0.392-2.287-0.546-4.591-2.415-5.957-1.058-0.785-2.313-1.169-3.584-1.169zM386.731 96h-261.462c-6.725 0-12.194 5.47-12.194 12.194v193.058c0 6.724 5.47 12.194 12.194 12.194h261.462c6.716 0 12.194-5.47 12.194-12.194v-193.058c0-6.724-5.478-12.194-12.194-12.194zM386.731 108.194v0zM125.269 301.252v-193.058h261.453l0.026 193.058h-261.478zM192.256 271.394c-3.362 0-6.093 2.731-6.093 6.093v68.421c0 3.362 2.731 6.093 6.093 6.093 3.37 0 6.101-2.731 6.101-6.093v-68.421c0-3.362-2.722-6.093-6.101-6.093zM323.106 271.394c-3.37 0-6.101 2.731-6.101 6.093v68.421c0 3.362 2.731 6.093 6.101 6.093s6.093-2.731 6.093-6.093v-68.421c0-3.362-2.722-6.093-6.093-6.093z" />
<glyph unicode="&#xe61a;" glyph-name="excel" data-tags="excel" d="M384 96v256h-256v-256h256zM375.458 343.458v-238.933h-238.934v238.933h238.934zM336 272v16h-57.6l-25.608-25.6-25.591 25.6h-60.8v-16l48-48.009-54.409-54.392v-16.017h119.749v-6.383h69.069v19.865l-22.409 21.735 10.94 12.8v15.983h-52.531l51.192 54.417zM179.191 278.4h9.608l115.2-115.217v-6.4h-9.6l-115.209 115.217v6.4z" />
<glyph unicode="&#xe61b;" glyph-name="eye" data-tags="eye" d="M255.983 96c-32.887 0-65.126 9.976-90.769 28.101-46.549 32.887-80.162 80.017-83.84 85.274-6.076 8.721-6.085 20.463-0.017 29.209 3.695 5.291 37.291 52.386 83.857 85.308 25.634 18.125 57.873 28.109 90.769 28.109 32.913 0 65.144-9.984 90.726-28.109 48.444-34.236 83.55-84.813 83.891-85.325 6.135-8.678 6.135-20.446-0.051-29.209-0.29-0.443-35.379-50.995-83.849-85.248-25.583-18.125-57.805-28.109-90.718-28.109zM255.983 334.933c-29.398 0-58.137-8.875-80.913-24.977-44.962-31.786-78.302-79.121-79.693-81.118-2.005-2.893-2.005-6.801 0.008-9.685 1.391-1.988 34.747-49.365 79.684-81.118 22.775-16.103 51.516-24.969 80.913-24.969 29.414 0 58.129 8.866 80.87 24.969 46.021 32.529 79.368 80.589 79.702 81.067 2.082 2.961 2.082 6.827 0.051 9.702-0.384 0.554-33.767 48.649-79.752 81.152-22.733 16.111-51.456 24.977-80.87 24.977zM255.983 164.267c-33.007 0-59.733 26.803-59.733 59.733 0 33.007 26.726 59.733 59.733 59.733 32.93 0 59.733-26.726 59.733-59.733-0.009-32.93-26.82-59.733-59.733-59.733z" />
<glyph unicode="&#xe61c;" glyph-name="facebook" data-tags="facebook" d="M276.147 96h-47.975v128h-32v44.118l32 0.008-0.051 25.984c0 35.985 9.762 57.882 52.147 57.882h35.303v-44.118h-22.058c-16.503 0-17.297-6.161-17.297-17.673l-0.068-22.084h39.671l-4.685-44.109-34.961-0.008-0.026-128z" />
<glyph unicode="&#xe61d;" glyph-name="home" data-tags="home" d="M332.408 96h-50.022c-9.413 0-17.075 7.569-17.075 16.853v59.204h-18.619v-59.204c0-9.284-7.655-16.853-17.075-16.853h-50.023c-9.421 0-17.075 7.569-17.075 16.853v103.535c0 9.302 7.655 16.862 17.075 16.862 3.37 0 6.101-2.739 6.101-6.093 0-3.379-2.731-6.11-6.101-6.11-2.688 0-4.881-2.082-4.881-4.651v-103.543c0-2.56 2.193-4.651 4.881-4.651h50.023c2.696 0 4.881 2.091 4.881 4.651v65.297c0 3.379 2.731 6.101 6.093 6.101h30.823c3.37 0 6.093-2.722 6.093-6.101v-65.297c0-2.56 2.202-4.651 4.881-4.651h50.022c2.688 0 4.881 2.091 4.881 4.651v103.535c0 1.212-0.478 2.346-1.339 3.209-0.921 0.938-2.193 1.442-3.541 1.442-3.353 0-6.084 2.739-6.084 6.11 0 3.362 2.731 6.093 6.084 6.093 4.616 0 8.935-1.784 12.16-5.018 3.175-3.174 4.915-7.39 4.915-11.844v-103.543c0-9.267-7.654-16.837-17.075-16.837zM366.933 209.894c-4.548 0-8.815 1.733-12.032 4.898-2.398 2.346-2.44 6.221-0.094 8.627 2.363 2.398 6.221 2.449 8.627 0.077 1.851-1.8 5.128-1.809 6.998 0.009 0.887 0.862 1.374 2.006 1.374 3.234 0 1.212-0.486 2.363-1.382 3.234l-110.925 108.638c-1.834 1.792-5.162 1.792-6.998 0l-110.925-108.63c-0.896-0.879-1.391-2.023-1.391-3.243s0.495-2.373 1.391-3.234c1.937-1.903 5.069-1.886 6.998-0.009 2.398 2.373 6.263 2.321 8.619-0.077 2.355-2.415 2.313-6.272-0.094-8.618-6.613-6.528-17.417-6.511-24.047-0.017-3.26 3.183-5.052 7.433-5.052 11.938 0 4.54 1.784 8.773 5.043 11.972l110.934 108.638c6.349 6.221 17.69 6.221 24.030 0l110.933-108.638c3.269-3.191 5.060-7.433 5.060-11.972 0-4.505-1.792-8.755-5.051-11.947-3.217-3.149-7.493-4.881-12.015-4.881z" />
<glyph unicode="&#xe61e;" glyph-name="infinity" data-tags="infinity" d="M177.775 175.266h-5.282c-0.214 0-0.435 0.009-0.649 0.034-30.123 3.2-43.844 27.187-43.844 48.128 0 15.71 7.783 35.738 29.61 44.817l1.049 0.47c1.391 0.631 2.952 1.339 4.667 1.8 5.922 2.040 7.672 2.219 8.84 2.219h5.828c12.083 0 23.441-7.219 34.406-14.2 3.951-2.517 7.689-4.889 11.426-6.929 0.999-0.537 2.117-1.391 3.208-2.296 0.461-0.384 0.913-0.81 1.391-1.075 0.999-0.563 1.988-1.161 2.995-1.767 1.339-0.802 2.696-1.613 4.062-2.355 4.659-2.731 9.233-5.385 13.833-8.047l11.656-6.767c1.834-1.075 2.995-3.047 3.021-5.189s-1.067-4.13-2.893-5.265l-5.256-3.251c-11.085-6.878-22.536-13.978-34.023-20.762-2.475-1.467-4.975-3.021-7.493-4.591-10.538-6.57-21.445-13.354-32.589-14.754-1.305-0.137-3.695-0.222-3.968-0.222zM172.826 187.452h4.898c0.375 0.017 1.834 0.077 2.577 0.154 8.388 1.041 18.133 7.117 27.563 12.988 2.602 1.604 5.179 3.226 7.739 4.736 10.214 6.024 20.446 12.348 30.439 18.526l-2.841 1.655c-4.625 2.671-9.208 5.333-13.704 7.978-1.331 0.717-2.833 1.621-4.318 2.509-0.939 0.554-1.861 1.109-2.765 1.621-1.049 0.589-2.107 1.434-3.149 2.287-0.427 0.35-0.827 0.726-1.238 0.964-4.138 2.253-8.218 4.847-12.16 7.356-9.506 6.050-19.337 12.297-27.87 12.297h-5.82c0.214 0-0.982-0.205-5.069-1.605-0.137-0.043-0.495-0.171-0.631-0.205-0.922-0.247-1.894-0.708-2.799-1.126l-1.322-0.581c-20.574-8.567-22.169-27.887-22.169-33.604 0-15.556 10.223-33.408 32.64-35.951zM339.832 175.274h-5.837c-12.083 0-23.424 7.219-34.415 14.2-3.942 2.517-7.663 4.898-11.418 6.929-0.998 0.538-2.099 1.399-3.217 2.304-0.461 0.392-0.913 0.819-1.382 1.084-0.973 0.555-1.954 1.135-2.944 1.733-1.349 0.81-2.731 1.63-4.104 2.373-4.668 2.739-9.25 5.41-13.866 8.081l-11.614 6.75c-1.843 1.092-2.995 3.055-3.021 5.188s1.066 4.13 2.893 5.265l5.931 3.669c11.050 6.844 22.118 13.696 33.357 20.344 2.474 1.459 4.975 3.021 7.501 4.591 10.53 6.562 21.435 13.337 32.581 14.745 1.28 0.136 3.678 0.231 3.951 0.231h5.274c0.205 0 0.426-0.009 0.632-0.034 30.149-3.209 43.87-27.205 43.87-48.137 0-15.693-7.774-35.738-29.619-44.817l-1.067-0.478c-1.51-0.683-3.123-1.391-4.659-1.792-5.308-1.861-7.39-2.227-8.824-2.227zM265.95 224.145l2.816-1.63c4.634-2.68 9.233-5.359 13.73-7.995 1.349-0.726 2.875-1.639 4.386-2.543l2.714-1.596c1.033-0.589 2.099-1.442 3.123-2.287 0.443-0.358 0.845-0.734 1.246-0.964 4.122-2.262 8.209-4.856 12.151-7.356 9.498-6.050 19.337-12.296 27.861-12.296h5.572c0.384 0.077 1.741 0.392 5.299 1.604 0.128 0.051 0.512 0.171 0.649 0.197 0.921 0.239 1.869 0.7 2.782 1.118l1.349 0.606c20.565 8.55 22.169 27.878 22.169 33.587 0 15.59-10.214 33.434-32.649 35.976h-4.95c-0.248 0-1.758-0.069-2.534-0.145-8.371-1.058-18.116-7.117-27.554-12.979-2.603-1.621-5.188-3.226-7.731-4.736-10.231-6.076-20.335-12.314-30.43-18.56z" />
<glyph unicode="&#xe61f;" glyph-name="info" data-tags="info" d="M256 334.933c61.167 0 110.933-49.766 110.933-110.933s-49.767-110.933-110.933-110.933-110.933 49.767-110.933 110.933 49.767 110.933 110.933 110.933zM256 352c-70.69 0-128-57.31-128-128 0-70.698 57.31-128 128-128 70.698 0 128 57.301 128 128 0 70.69-57.301 128-128 128v0zM255.786 189.815c9.455 0 17.084-7.834 17.084-17.067 0-9.25-7.629-16.853-17.084-16.853-9.046 0-16.649 7.603-16.649 16.853-0.008 9.233 7.603 17.067 16.649 17.067zM248.806 207.402l-8.030 57.361v23.433c0 2.056 1.861 3.909 3.917 3.909h22.605c2.057 0 3.909-1.851 3.909-3.909v-23.023l-8.022-57.771c-0.188-1.63-2.048-3.303-3.899-3.303h-6.579c-1.851 0-3.695 1.664-3.899 3.303z" />
<glyph unicode="&#xe620;" glyph-name="ipad" data-tags="ipad" d="M353.314 341.095v-234.172c0-5.999-4.915-10.914-10.931-10.914h-172.8c-5.999 0-10.897 4.915-10.897 10.914v234.172c0 6.016 4.906 10.905 10.897 10.905h172.8c6.016 0 10.931-4.889 10.931-10.905zM169.583 106.914h172.8v234.163h-172.8v-234.163zM266.59 134.4c0-5.302-4.298-9.6-9.6-9.6s-9.6 4.298-9.6 9.6c0 5.302 4.298 9.6 9.6 9.6s9.6-4.298 9.6-9.6zM271.983 326.4h-32c-1.767 0-3.2 1.434-3.2 3.2s1.434 3.2 3.2 3.2h32c1.767 0 3.2-1.433 3.2-3.2s-1.433-3.2-3.2-3.2z" />
<glyph unicode="&#xe621;" glyph-name="knowladge_center" data-tags="knowladge_center" d="M256 352c-48.606 0-87.995-39.382-87.995-87.995 0-32.248 29.508-66.423 40.251-96.435 16.017-44.766 14.242-71.569 47.744-71.569 33.997 0 31.719 26.675 47.752 71.373 10.786 30.072 40.252 64.623 40.252 96.623-0.009 48.623-39.416 88.005-88.005 88.005zM276.736 134.587l-39.663-4.958c-1.417 4.096-2.927 8.901-4.779 15.147-0.017 0.086-0.051 0.171-0.069 0.248l49.511 6.187c-0.709-2.346-1.459-4.839-2.108-7.065-1.058-3.575-2.005-6.716-2.893-9.558zM229.888 152.729c-1.451 4.813-3.089 9.89-4.923 15.266h62.114c-0.964-2.875-1.962-5.752-2.799-8.465l-54.392-6.801zM256 112c-8.107 0-11.835 0.93-15.975 10.001l33.912 4.25c-4.923-13.235-8.507-14.25-17.937-14.25zM293.376 183.995h-74.666c-3.985 8.635-8.763 17.28-13.491 25.736-10.436 18.671-21.222 38.007-21.222 54.264 0 39.697 32.29 72.004 72.004 72.004 39.697 0 72.005-32.298 72.005-72.005 0-16.137-10.803-35.567-21.248-54.366-4.685-8.414-9.43-17.041-13.38-25.634zM256 311.995c-26.471 0-48-21.529-48-48 0-2.202 1.792-4.002 4.002-4.002s4.002 1.8 4.002 4.002c0 22.050 17.946 40.005 40.005 40.005 2.21 0 4.002 1.8 4.002 4.002s-1.809 3.993-4.010 3.993z" />
<glyph unicode="&#xe622;" glyph-name="latest_orders" data-tags="latest_orders" d="M170.053 254.472h-9.131c-2.543 0-4.591 0.52-4.591 3.047s2.048 3.047 4.591 3.047h9.131c2.526 0 4.574-0.529 4.574-3.047 0-2.526-2.048-3.047-4.574-3.047zM200.525 254.472h-9.131c-2.526 0-4.574 0.52-4.574 3.047s2.048 3.047 4.574 3.047h9.131c2.535 0 4.583-0.529 4.583-3.047 0-2.526-2.048-3.047-4.583-3.047zM230.998 254.472h-9.131c-2.543 0-4.583 0.52-4.583 3.047s2.040 3.047 4.583 3.047h9.131c2.535 0 4.574-0.529 4.574-3.047 0-2.526-2.040-3.047-4.574-3.047zM261.487 254.472h-9.139c-2.535 0-4.583 0.52-4.583 3.047s2.040 3.047 4.583 3.047h9.139c2.526 0 4.565-0.529 4.565-3.047 0-2.526-2.048-3.047-4.565-3.047zM230.827 108.194h-83.029v223.522l7.919-8.746c1.143-1.255 2.748-1.98 4.446-1.997 1.63 0.214 3.311 0.674 4.48 1.903l9.575 10.154 9.6-10.445c2.304-2.5 6.536-2.5 8.849 0l9.378 10.402 9.173-10.385c1.152-1.246 3.635-1.945 3.635-1.945v0.026c6.101 0 4.165 0.768 5.325 2.022l10.445 10.513 9.591-10.146c1.152-1.246 2.782-1.544 4.471-1.544 0 0 0.008 0 0.017 0 1.698 0 3.32 0.315 4.471 1.561l9.617 10.070 9.566-10.257c1.178-1.246 2.816-1.988 4.497-1.929 1.715 0.009 3.345 0.734 4.471 1.997l10.666 11.75v-65.331c3.012 0.29 6.058 0.461 9.147 0.461 1.033 0 2.022-0.12 3.038-0.145v76.194c0 3.37-2.722 6.093-6.11 6.093h-4.156c-1.724 0-3.37-0.726-4.505-1.997l-12.655-13.944-9.541 10.232c-1.161 1.237-2.774 1.937-4.454 1.937-1.425-0.069-3.337-0.709-4.488-1.963l-9.608-10.47-9.583 10.351c-1.161 1.246-2.791 1.954-4.48 1.954 0 0 0 0-0.008 0-1.698 0-3.32-0.717-4.463-1.962l-9.6-10.402-9.591 10.377c-2.304 2.5-6.648 2.491-8.96 0l-9.591-10.394-9.6 10.385c-1.143 1.238-2.748 1.937-4.446 1.954-1.775-0.264-3.303-0.674-4.454-1.903l-9.549-10.112-12.663 13.969c-1.143 1.272-2.782 1.997-4.514 1.997h-1.442c-3.37 0-6.093-2.722-6.093-6.093v-243.823c0-3.362 2.722-6.084 6.093-6.084h104.379c-5.495 3.55-10.632 7.611-15.266 12.194zM297.139 254.618c-43.69 0-79.24-35.55-79.24-79.224 0-43.707 35.559-79.24 79.24-79.24 43.673 0 79.24 35.533 79.24 79.24 0 43.673-35.567 79.224-79.24 79.224zM330.666 156.954h-36.591c-3.362 0-6.084 2.731-6.084 6.101v60.945c0 3.37 2.722 6.093 6.084 6.093 3.379 0 6.11-2.722 6.11-6.093v-54.853h30.481c3.362 0 6.084-2.722 6.084-6.101 0-3.362-2.722-6.093-6.084-6.093z" />
<glyph unicode="&#xe623;" glyph-name="link" data-tags="link" d="M295.611 219.784l0.478 0.478c-3.038 10.359-8.661 19.832-16.35 27.494-12.041 12.049-28.459 18.97-45.056 18.97-15.454 0-29.798-5.837-40.38-16.418l-49.886-49.877c-22.844-22.844-21.701-61.192 2.552-85.462 12.237-12.237 28.245-18.969 45.073-18.969 15.454 0 29.798 5.837 40.371 16.426l49.886 49.894c0.76 0.76 1.51 1.553 2.236 2.363-6.349-0.555-12.885-0.358-19.362 0.649l-42.829-42.82c-7.911-7.919-18.671-12.271-30.31-12.271-12.817 0-25.566 5.401-34.978 14.797-9.011 9.019-14.268 20.753-14.78 33.033-0.52 12.39 3.823 23.851 12.237 32.239l49.886 49.894c7.893 7.919 18.662 12.271 30.293 12.271 12.809 0 25.566-5.385 34.978-14.797 6.887-6.887 11.554-15.309 13.611-24.533 4.77 1.041 8.986 3.303 12.331 6.639zM277.308 181.265c15.462 0 29.79 5.837 40.389 16.435l49.903 49.869c22.835 22.861 21.683 61.192-2.568 85.453-12.228 12.237-28.237 18.978-45.073 18.978-15.454 0-29.781-5.837-40.38-16.409l-49.869-49.878c-0.76-0.768-1.511-1.578-2.253-2.406 6.375 0.597 12.894 0.367 19.37-0.649l42.829 42.846c7.902 7.91 18.654 12.262 30.276 12.262 12.834 0 25.575-5.393 35.003-14.805 9.011-9.003 14.259-20.736 14.779-33.033 0.529-12.408-3.815-23.859-12.228-32.256l-49.877-49.886c-7.911-7.911-18.671-12.271-30.302-12.271-12.825 0-25.575 5.41-34.987 14.805-6.887 6.904-11.546 15.326-13.602 24.534-4.736-1.016-8.952-3.286-12.322-6.648l-0.487-0.487c3.055-10.342 8.67-19.806 16.341-27.486 12.237-12.219 28.237-18.961 45.056-18.969z" />
<glyph unicode="&#xe624;" glyph-name="linkedin" data-tags="linkedin" d="M192 96h-51.2v179.2h51.2v-179.2zM166.4 300.8c-14.149 0-25.6 11.452-25.6 25.6s11.452 25.6 25.6 25.6 25.6-11.452 25.6-25.6-11.452-25.6-25.6-25.6zM371.2 96h-51.2v102.4c0 14.149-11.452 25.6-25.6 25.6s-25.6-11.452-25.6-25.6v-102.4h-51.2v179.2h51.2v-31.786c10.565 14.515 26.701 31.786 44.8 31.786 31.821 0 57.6-28.663 57.6-64v-115.2z" />
<glyph unicode="&#xe625;" glyph-name="event_date" data-tags="event_date" d="M385.246 96h-258.491c-7.501 0-13.602 6.11-13.602 13.611v190.456c0 7.501 6.102 13.602 13.602 13.602h258.483c7.501 0 13.602-6.101 13.602-13.602v-190.456c0-7.501-6.101-13.611-13.594-13.611zM385.246 109.611v0zM126.754 300.066v-190.456h258.457l0.026 190.456h-258.483zM191.607 270.387c-3.755 0-6.809 3.038-6.809 6.801v68.019c0 3.755 3.047 6.801 6.81 6.801s6.801-3.038 6.801-6.801v-68.019c0-3.763-3.038-6.801-6.801-6.801zM321.69 270.387c-3.755 0-6.801 3.038-6.801 6.801v68.019c0 3.755 3.038 6.801 6.801 6.801s6.81-3.038 6.81-6.801v-68.019c0-3.763-3.038-6.801-6.81-6.801zM210.296 168.132c0.069 0.563 0.367 1.050 0.896 1.433s1.109 0.521 1.75 0.367c2.475-0.632 5.189-1.084 8.167-1.314 2.97-0.248 5.581-0.384 7.842-0.384 6.221 0 10.573 0.998 13.047 2.969 2.475 1.979 3.703 4.983 3.703 9.019v4.668c0 1.979-0.435 3.618-1.314 4.933-0.887 1.297-2.056 2.363-3.507 3.183-1.442 0.802-3.114 1.382-5.026 1.75-1.911 0.35-3.882 0.521-5.93 0.521h-12.091c-1.339 0-2.014 0.683-2.014 2.014v5.512c0 1.331 0.674 2.014 2.014 2.014h13.355c3.891 0 6.954 1.015 9.225 3.080 2.27 2.031 3.397 4.514 3.397 7.416v3.286c0 3.533-1.203 6.076-3.601 7.637-2.398 1.553-5.589 2.329-9.549 2.329-2.535 0-5.333-0.162-8.371-0.487-3.038-0.315-5.794-0.76-8.269-1.314-1.058-0.214-1.698-0.085-1.911 0.418-0.205 0.504-0.384 0.947-0.529 1.382l-0.956 4.975c-0.145 0.427-0.128 0.853 0.051 1.272s0.581 0.708 1.22 0.845c2.602 0.708 5.538 1.305 8.79 1.8s6.511 0.743 9.762 0.743c8.414 0 14.472-1.647 18.184-4.933 3.703-3.286 5.564-8.005 5.564-14.149v-4.036c0-3.115-0.478-5.837-1.434-8.166-0.947-2.329-2.808-4.284-5.564-5.837 2.475-1.553 4.566-3.67 6.255-6.349 1.69-2.697 2.543-5.7 2.543-9.019v-6.050c0-7.271-2.142-12.603-6.417-16s-11.221-5.103-20.83-5.103c-2.688 0-5.555 0.137-8.584 0.384-3.047 0.231-6.076 0.751-9.122 1.536-0.708 0.154-1.203 0.384-1.485 0.7s-0.358 0.853-0.214 1.63l0.956 5.325zM281.002 237.627c0.64 0.034 1.45 0.051 2.44 0.051 1.203 0 2.134-0.017 2.808-0.051 0.666-0.034 1.186-0.162 1.536-0.375 0.358-0.205 0.58-0.581 0.691-1.109s0.171-1.288 0.171-2.287v-66.363h10.274c1.92 0 3.021-0.281 3.345-0.853s0.478-1.664 0.478-3.286c0-0.998-0.017-1.784-0.051-2.398-0.043-0.58-0.162-1.067-0.375-1.416-0.205-0.35-0.58-0.598-1.11-0.751-0.529-0.137-1.288-0.214-2.287-0.214h-30.421c-0.99 0-1.75 0.086-2.279 0.214-0.529 0.154-0.896 0.401-1.118 0.751s-0.333 0.837-0.375 1.416c-0.034 0.615-0.051 1.399-0.051 2.398 0 1.613 0.162 2.714 0.478 3.286s1.433 0.853 3.345 0.853h9.967v57.455l-8.055-4.557c-1.622-0.913-2.757-1.186-3.387-0.785-0.632 0.384-1.416 1.45-2.329 3.217-0.563 1.067-1.007 1.903-1.322 2.5s-0.486 1.109-0.486 1.536 0.214 0.819 0.64 1.169c0.426 0.358 1.058 0.776 1.911 1.272l13.892 7.851c0.469 0.281 1.033 0.444 1.673 0.478z" />
<glyph unicode="&#xe626;" glyph-name="minisite" data-tags="minisite" d="M125.261 352h261.453c6.716 0 12.202-5.487 12.202-12.202v-190.567c0-6.699-5.487-12.168-12.202-12.168h-261.453c-6.716 0-12.177 5.47-12.177 12.168v190.567c0 6.724 5.462 12.202 12.177 12.202zM386.714 149.231v190.567h-261.427l-0.017-190.567h261.445zM125.261 339.798v0zM249.916 149.231h-0.017v-47.13c0-3.379 2.731-6.101 6.093-6.101 3.379 0 6.11 2.722 6.11 6.101v47.13h-12.185zM215.697 102.101c0 3.379 2.722 6.101 6.101 6.101h68.411c3.37 0 6.084-2.714 6.084-6.101 0-3.379-2.714-6.101-6.084-6.101h-68.411c-3.379 0-6.101 2.731-6.101 6.101z" />
<glyph unicode="&#xe627;" glyph-name="mobile" data-tags="mobile" d="M324.522 341.095v-234.172c0-5.999-4.906-10.914-10.923-10.914h-115.226c-6.007 0-10.897 4.915-10.897 10.914v234.172c0 6.016 4.906 10.905 10.897 10.905h115.226c6.016 0 10.923-4.889 10.923-10.905zM198.375 106.914h115.226v234.163h-115.226v-234.163zM268.655 129.015c0-5.302-4.298-9.6-9.6-9.6s-9.6 4.298-9.6 9.6c0 5.302 4.298 9.6 9.6 9.6s9.6-4.298 9.6-9.6zM275.2 320h-32c-1.767 0-3.2 1.433-3.2 3.2s1.434 3.2 3.2 3.2h32c1.767 0 3.2-1.433 3.2-3.2s-1.433-3.2-3.2-3.2z" />
<glyph unicode="&#xe628;" glyph-name="mover" data-tags="mover" d="M281.613 192.013h-51.2v-73.587h-51.2l76.787-86.425 76.8 86.425h-51.187v73.587zM230.4 255.987h51.2v73.638h51.2l-76.8 86.375-76.8-86.375h51.2v-73.638z" />
<glyph unicode="&#xe629;" glyph-name="name_badge" data-tags="name_badge" d="M409.6 345.779h-93.551v-18.193h85.017v-213.393h-290.134v213.393h77.115v18.193h-85.649c-4.719 0-8.534-4.071-8.534-9.096v-231.595c0-5.017 3.814-9.088 8.534-9.088h307.2c4.719 0 8.534 4.070 8.534 9.088v231.595c0 5.034-3.815 9.096-8.534 9.096zM290.134 333.38c0-10.043-7.646-18.202-17.067-18.202h-42.666c-9.421 0-17.066 8.158-17.066 18.202v0.418c0 10.043 7.646 18.202 17.066 18.202h42.666c9.421 0 17.067-8.158 17.067-18.193v-0.427zM215.902 200.883c-1.365 0-2.492-1.161-2.492-2.577s1.126-2.56 2.492-2.56c14.31 0 25.95-14.89 25.95-29.654 0-2.637-2.073-7.663-4.625-7.663h-92.407c-2.552 0-4.625 5.034-4.625 7.663 0 14.754 11.631 28.211 25.95 28.211 1.365 0 2.492 1.861 2.492 3.269s-1.126 2.935-2.492 2.935c-17.058 0-30.925-18.858-30.925-36.429 0-5.445 4.301-14.447 9.6-14.447h92.407c5.291 0 9.591 9.173 9.591 14.626 0 17.596-13.867 36.625-30.917 36.625zM160.102 234.948c0-21.615 13.867-39.202 30.917-39.202s30.916 17.587 30.916 39.202c0 21.624-13.867 39.211-30.916 39.211-8.363 0-16.197-4.156-22.050-11.699-5.726-7.355-8.866-17.135-8.866-27.511zM191.018 269.022c14.319 0 25.95-15.283 25.95-34.073 0-18.782-11.631-34.065-25.95-34.065-14.31 0-25.941 15.283-25.958 34.065 0.017 18.791 11.648 34.074 25.959 34.074zM372.514 246.392h-102.4c-2.355 0-4.267 1.963-4.267 4.386 0 2.432 1.911 4.403 4.267 4.403h102.4c2.363 0 4.267-1.963 4.267-4.403 0-2.423-1.894-4.386-4.267-4.386zM329.848 217.156h-59.733c-2.355 0-4.267 1.971-4.267 4.394s1.911 4.403 4.267 4.403h59.733c2.363 0 4.267-1.971 4.267-4.403 0-2.415-1.894-4.394-4.267-4.394z" />
<glyph unicode="&#xe62a;" glyph-name="net_income" data-tags="net_income" d="M225.511 96c-5.701 0-11.059 2.219-15.095 6.238l-76.202 76.194c-5.598 5.64-7.62 13.824-5.291 21.393 5.248 16.981 14.183 31.642 27.315 44.809 15.274 15.266 33.408 25.77 50.944 35.926 15.889 9.233 30.916 17.954 42.154 29.201 8.123 8.107 13.585 17.016 16.726 27.23 1.050 3.32 2.875 6.349 5.299 8.781 2.765 2.765 6.221 4.702 9.993 5.623 7.117 1.767 14.942-0.375 20.19-5.623l76.211-76.194c5.581-5.607 7.62-13.798 5.299-21.376-5.248-17.024-14.191-31.675-27.341-44.826-15.147-15.155-33.331-25.728-50.918-35.942-15.88-9.207-30.873-17.903-42.154-29.175-8.098-8.072-13.577-16.981-16.751-27.23-1.032-3.32-2.85-6.358-5.291-8.781-2.722-2.722-6.161-4.668-9.941-5.606-1.69-0.435-3.422-0.64-5.145-0.64zM286.473 339.823c-0.734 0-1.485-0.094-2.202-0.273-1.622-0.392-3.098-1.229-4.275-2.398-1.050-1.058-1.809-2.321-2.279-3.781-3.729-12.135-10.197-22.69-19.746-32.239-12.365-12.357-28.058-21.47-44.655-31.113-16.87-9.77-34.296-19.874-48.435-33.997-11.708-11.725-19.653-24.738-24.294-39.791-0.999-3.251-0.128-6.767 2.27-9.19l76.177-76.185c2.253-2.236 5.564-3.166 8.687-2.398 1.613 0.401 3.097 1.238 4.267 2.398 1.058 1.058 1.817 2.329 2.27 3.789 3.772 12.177 10.24 22.724 19.78 32.231 12.399 12.399 28.066 21.478 44.638 31.113 16.913 9.813 34.389 19.959 48.426 33.997 11.707 11.716 19.661 24.721 24.303 39.791 0.99 3.243 0.128 6.767-2.279 9.182l-76.194 76.194c-1.733 1.715-4.019 2.671-6.459 2.671zM283.136 232.397c-2.483 2.073-4.983 3.49-7.493 4.19-2.5 0.708-5 0.982-7.535 0.802-2.5-0.188-5.060-0.751-7.629-1.741-2.551-0.999-5.137-2.090-7.714-3.345-4.096 4.702-8.192 9.352-12.28 13.662 1.843 1.673 3.635 2.518 5.359 2.577 1.732 0.077 3.387-0.111 4.966-0.512 1.613-0.393 3.081-0.734 4.438-1.007 1.382-0.264 2.56 0.034 3.61 0.905 1.101 0.956 1.715 2.193 1.8 3.678 0.077 1.502-0.486 2.961-1.75 4.386-1.604 1.843-3.542 2.961-5.871 3.379-2.296 0.409-4.633 0.384-7.083-0.154-2.415-0.546-4.702-1.451-6.869-2.739-2.167-1.28-3.917-2.594-5.206-3.874-0.495 0.478-0.99 0.939-1.485 1.399-0.546 0.504-1.238 0.776-2.056 0.76-0.837 0-1.528-0.358-2.082-1.016-0.546-0.631-0.802-1.382-0.7-2.167 0.077-0.81 0.401-1.434 0.964-1.911 0.495-0.427 0.99-0.837 1.476-1.263-1.946-2.355-3.55-4.958-4.821-7.697-1.272-2.748-2.040-5.478-2.321-8.115-0.298-2.671-0.017-5.112 0.793-7.373 0.819-2.279 2.329-4.216 4.523-6.041 3.593-2.978 7.816-4.233 12.714-3.959 4.881 0.29 10.146 1.758 15.813 4.796 4.488-5.205 8.994-10.36 13.509-15.147-1.903-1.604-3.567-2.534-5.043-2.833-1.476-0.307-2.791-0.281-3.976 0.077-1.186 0.375-2.287 0.913-3.303 1.604s-2.014 1.288-3.012 1.784c-0.982 0.486-1.997 0.76-3.030 0.776-1.041 0.009-2.142-0.495-3.362-1.536-1.246-1.084-1.877-2.346-1.877-3.781 0-1.399 0.657-2.858 1.937-4.31 1.297-1.45 2.987-2.68 5.009-3.652 2.031-0.964 4.335-1.579 6.87-1.741 2.526-0.171 5.197 0.205 8.005 1.246 2.833 1.024 5.623 2.893 8.389 5.649 1.314-1.288 2.663-2.517 3.985-3.712 0.572-0.495 1.255-0.734 2.082-0.666 0.802 0.026 1.502 0.392 2.057 1.067 0.563 0.683 0.802 1.442 0.726 2.236-0.086 0.81-0.409 1.408-0.947 1.869-1.349 1.067-2.68 2.193-4.027 3.387 2.279 2.799 4.113 5.752 5.47 8.661 1.349 2.935 2.159 5.76 2.415 8.38 0.264 2.637-0.043 5.009-0.904 7.177-0.845 2.159-2.355 4.028-4.531 5.845zM240.537 227.226c-2.159-0.094-4.045 0.623-5.683 2.21-0.7 0.666-1.186 1.485-1.485 2.449-0.315 0.973-0.41 2.031-0.298 3.191 0.111 1.143 0.452 2.338 1.049 3.542 0.563 1.203 1.399 2.406 2.466 3.567 3.865-3.84 7.714-8.047 11.579-12.416-2.935-1.595-5.478-2.449-7.629-2.543zM276.463 211.968c-0.683-1.263-1.459-2.398-2.389-3.379-4.284 4.327-8.542 9.063-12.8 13.918 1.084 0.495 2.227 0.998 3.456 1.519 1.246 0.52 2.474 0.87 3.712 1.083 1.263 0.179 2.517 0.137 3.763-0.162 1.238-0.315 2.406-0.981 3.49-2.039 1.075-1.075 1.767-2.185 2.022-3.397 0.298-1.221 0.315-2.449 0.12-3.721-0.214-1.28-0.666-2.543-1.374-3.823zM246.221 176.921h-0.017c-4.762-3.67-9.404-7.518-13.713-11.836-4.138-4.139-7.876-8.499-11.136-12.954l-5.206-7.125 0.008-0.009c-0.947-1.485-0.793-3.481 0.504-4.779 1.485-1.476 3.917-1.476 5.41 0 0.231 0.231 0.41 0.486 0.563 0.76l4.873 6.664c3.021 4.13 6.511 8.192 10.368 12.049 4.275 4.267 8.234 7.577 13.056 11.23l-0.008 0.017c0.128 0.111 0.264 0.188 0.375 0.307 1.502 1.502 1.502 3.934 0 5.418-1.374 1.408-3.576 1.476-5.077 0.256zM274.116 287.138c-3.993-3.985-8.312-7.577-12.783-11.008-0.307-0.171-0.623-0.367-0.887-0.657-1.502-1.493-1.502-3.942 0-5.444 1.45-1.468 3.806-1.502 5.334-0.111l0.017-0.017c4.77 3.653 9.413 7.527 13.713 11.836 4.139 4.13 7.877 8.482 11.127 12.919l5.205 7.151-0.017 0.008c1.297 1.527 1.238 3.789-0.188 5.214-1.502 1.502-3.934 1.502-5.435 0-0.281-0.281-0.486-0.615-0.666-0.93l-5.051-6.938c-3.046-4.122-6.519-8.166-10.368-12.024z" />
<glyph unicode="&#xe62b;" glyph-name="network" data-tags="network" d="M352.051 168.593v110.814c18.287 2.901 31.991 17.903 31.991 36.019 0 20.198-15.616 36.574-35.806 36.574-20.182 0-37.709-16.375-37.709-36.574 0-18.117 17.135-33.118 29.329-36.019v-110.814c0-0.887-8.781-2.927-13.073-5.871l-129.587 134.699c3.012 5.308 5.145 11.452 5.145 17.997 0 20.198-16.179 36.574-36.377 36.574-20.207 0-37.999-16.375-37.999-36.574 0-18.116 16.862-33.118 29.048-36.019v-110.814c-12.194-2.901-28.953-17.903-28.953-36.019 0-20.207 17.135-36.574 37.333-36.574 20.19 0 35.422 16.367 35.422 36.574 0 18.116-13.329 33.118-31.625 36.019v110.822c12.194 1.144 14.489 4.147 19.465 8.507l130.151-133.7c-4.463-6.058-6.759-13.534-6.759-21.649 0-20.199 16.563-36.565 36.762-36.565s35.141 16.367 35.141 36.565c0 18.125-13.619 33.127-31.897 36.028zM166.144 291.047c-13.448 0-24.38 10.931-24.38 24.371 0 13.448 10.931 24.38 24.38 24.38s24.38-10.931 24.38-24.38c0-3.038-0.623-5.93-1.647-8.627-1.511-3.959-4.036-7.373-7.245-10.043-4.224-3.507-9.575-5.7-15.488-5.7zM348.997 108.194c-13.44 0-24.38 10.931-24.38 24.38 0 4.651 1.382 8.96 3.644 12.655 2.168 3.524 5.188 6.409 8.789 8.457 3.541 2.014 7.586 3.26 11.947 3.26 13.44 0 24.371-10.931 24.371-24.371 0.009-13.449-10.923-24.38-24.371-24.38z" />
<glyph unicode="&#xe62c;" glyph-name="new_email" data-tags="new_email" d="M356.327 234.376c-38.204 0-69.188-30.984-69.188-69.189 0-38.212 30.993-69.188 69.188-69.188s69.188 30.985 69.188 69.188c0 38.221-30.993 69.189-69.188 69.189zM390.921 158.267h-27.673v-27.673c0-3.823-3.089-6.921-6.921-6.921s-6.921 3.089-6.921 6.921v27.673h-27.673c-3.823 0-6.929 3.098-6.929 6.929s3.098 6.921 6.929 6.921h27.673v27.673c0 3.823 3.089 6.921 6.921 6.921s6.921-3.089 6.921-6.921v-27.673h27.673c3.823 0 6.929-3.089 6.929-6.921s-3.106-6.929-6.929-6.929zM259.456 165.188c0 2.329 0.188 4.616 0.35 6.921h-159.48v144.649l121.352-92.314c1.161-0.888 3.832-1.331 5.189-1.331 1.374 0 2.671 0.443 3.832 1.331l118.707 92.229v-54.955c2.296 0.162 4.574 0.35 6.921 0.35 2.329 0 4.625-0.188 6.921-0.35v83.917c0 3.909-2.944 6.383-6.579 6.383h-263.594c-3.644 0-6.588-2.474-6.588-6.383v-179.61c0-3.899 2.953-7.74 6.588-7.74h166.733c-0.154 2.279-0.35 4.565-0.35 6.904zM100.326 338.159h249.079v-4.369l-121.421-94.916-127.659 97.476v1.809z" />
<glyph unicode="&#xe62d;" glyph-name="new_event" data-tags="new_event" d="M349.866 100.267c-35.286 0-63.991 28.706-63.991 64s28.706 64 63.991 64 63.991-28.706 63.991-64-28.706-64-63.991-64zM349.866 215.611c-28.305 0-51.345-23.023-51.345-51.345s23.031-51.345 51.345-51.345 51.345 23.023 51.345 51.345-23.040 51.345-51.345 51.345zM349.866 132.625c-3.498 0-6.323 2.833-6.323 6.332v50.62c0 3.498 2.825 6.332 6.323 6.332s6.323-2.833 6.323-6.332v-50.62c0-3.498-2.825-6.332-6.323-6.332zM375.176 157.943h-50.62c-3.498 0-6.332 2.825-6.332 6.323s2.833 6.323 6.332 6.323h50.62c3.498 0 6.332-2.825 6.332-6.323s-2.833-6.323-6.332-6.323zM289.45 113.527h-180.488v189.542h60.936v-21.538c0-3.737 3.021-6.767 6.767-6.767 3.738 0 6.767 3.029 6.767 6.767v21.538h115.081v-21.538c0-3.737 3.021-6.767 6.767-6.767 3.738 0 6.767 3.029 6.767 6.767v21.538h54.161l-0.009-60.723c4.736-0.367 9.25-1.041 13.543-2.031v63.983c0 7.466-6.075 12.313-13.543 12.313h-54.169v32.615c0 3.738-3.021 6.767-6.767 6.767-3.738 0-6.767-3.029-6.767-6.767v-32.615h-115.089v32.615c0 3.738-3.021 6.767-6.767 6.767-3.738 0-6.767-3.029-6.767-6.767v-32.615h-60.928c-7.475 0-13.543-4.83-13.543-12.296v-189.551c0-7.466 6.067-14.762 13.543-14.762h191.659c-4.25 4.079-7.945 8.635-11.153 13.526zM212.155 167.936v4.156c0 1.681 0.845 2.543 2.535 2.543h12.22c1.69 0 2.552-0.862 2.552-2.543v-5.205h14.191c1.69 0 2.543 0.845 2.543 2.543v18.031c0 3.379-1.681 5.086-5.086 5.086h-14.942c-1.775 0-2.662 0.853-2.662 2.551v11.648c0 1.69 0.887 2.551 2.662 2.551h14.942c1.647 0 2.91 0.435 3.78 1.288 0.87 0.879 1.288 2.082 1.288 3.661v18.167c0 1.69-0.853 2.535-2.543 2.535h-14.191v-5.197c0-1.69-0.862-2.535-2.552-2.535h-12.211c-1.698 0-2.552 0.845-2.552 2.535v5.197c0 5.462 1.528 9.6 4.54 12.467 3.030 2.833 7.433 4.267 13.209 4.267h14.728c5.974 0 10.522-1.553 13.671-4.65 3.123-3.081 4.711-7.646 4.711-13.637v-23.296c0-2.313-0.751-4.301-2.253-5.974-1.502-1.681-3.397-2.697-5.701-3.063v-0.239c2.304-0.384 4.198-1.382 5.701-3.029 1.502-1.664 2.253-3.652 2.253-5.957v-23.356c0-5.999-1.587-10.538-4.711-13.654-3.123-3.098-7.672-4.651-13.671-4.651h-14.72c-5.734 0-10.129 1.536-13.167 4.591-3.030 3.021-4.565 7.424-4.565 13.167z" />
<glyph unicode="&#xe62e;" glyph-name="new_list" data-tags="new_list" d="M289.152 313.6h-112c-1.468 0-2.671 1.732-2.671 3.2s1.203 3.2 2.671 3.2h112c1.476 0 2.671-1.733 2.671-3.2s-1.195-3.2-2.671-3.2zM289.152 285.866h-112c-1.468 0-2.671 1.733-2.671 3.2s1.203 3.2 2.671 3.2h112c1.476 0 2.671-1.732 2.671-3.2s-1.195-3.2-2.671-3.2zM230.494 256h-53.333c-1.468 0-2.662 1.724-2.662 3.2s1.195 3.2 2.662 3.2h53.334c1.468 0 2.662-1.724 2.662-3.2s-1.195-3.2-2.662-3.2zM315.827 202.666c-29.449 0-53.334-23.885-53.334-53.334 0-29.457 23.885-53.334 53.334-53.334s53.325 23.877 53.325 53.334c0 29.466-23.877 53.334-53.325 53.334zM342.494 140.8h-21.863v-18.134c0-2.952-3.447-5.334-6.4-5.334s-6.4 2.381-6.4 5.334v18.134h-18.671c-2.944 0-5.325 3.447-5.325 6.4s2.381 6.4 5.325 6.4h18.671v22.4c0 2.952 3.447 5.334 6.4 5.334s6.4-2.381 6.4-5.334v-22.4h21.863c2.944 0 5.334-3.447 5.334-6.4s-2.398-6.4-5.334-6.4zM242.006 140.8h-81.382v198.4h147.2v-115.559c0 0.214 5.658 0.358 8.005 0.358 1.255 0-1.604-0.128 4.796-0.179v117.512c0 5.88-5.854 10.666-11.733 10.666h-149.333c-5.871 0-11.733-4.787-11.733-10.666v-202.666c0-5.88 5.863-10.666 11.733-10.666h84.727c-1.024 3.447-1.767 6.4-2.279 12.8z" />
<glyph unicode="&#xe62f;" glyph-name="notification" data-tags="notification" d="M365.261 152.269c-1.075 1.135-26.291 28.356-26.505 94.464-0.103 33.212-21.265 62.856-52.685 73.882l-5.368 1.843 0.938 5.59c0.188 1.212 0.392 2.432 0.392 3.712 0 11.972-9.753 21.7-21.717 21.7-11.972 0-21.709-9.737-21.709-21.709 0-1.272 0.205-2.509 0.401-3.712l0.922-5.615-5.359-1.877c-31.513-11.008-52.685-40.747-52.685-73.993 0-66.841-26.393-94.49-26.658-94.728-1.997-1.988-2.645-3.217-1.485-6.033 1.152-2.816 3.865-2.646 6.929-2.646h49.98l1.305-7.048c5.76-22.161 25.642-38.639 48.367-38.639 22.716 0 42.615 16.973 48.367 39.142l1.322 6.553h49.962c2.952 0 5.623-0.179 6.818 2.594 1.161 2.705 0.546 4.318-1.536 6.519zM196.821 245.794c0.008 35.013 28.501 63.864 63.488 63.864 34.918 0 63.411-28.305 63.496-63.326 0.026-9.531 0.563-18.978 1.622-27.946l0.205-0.845h-130.602l0.222 0.921c1.041 9.002 1.57 17.8 1.57 27.333zM290.663 131.003c-6.306-10.846-17.937-18.586-30.344-18.586-12.391 0-24.022 8.226-30.362 19.063l-5.939 11.665h72.55l-5.905-12.143zM175.752 156.672l4.625 9.762c5.385 11.264 9.489 17.288 12.297 37.581h135.373c2.816-20.293 6.912-26.846 12.279-38.178l4.599-9.165h-169.173z" />
<glyph unicode="&#xe630;" glyph-name="OnSiteCheckin" data-tags="OnSiteCheckin" d="M370.176 96h-228.352c-3.456 0-6.263 2.799-6.263 6.264v228.369c0 3.456 2.808 6.255 6.263 6.255h165.154c3.43 0 6.238-2.799 6.238-6.255 0-3.465-2.808-6.272-6.238-6.272h-158.891v-215.808h215.816v133.265c0 3.464 2.816 6.263 6.264 6.263 3.456 0 6.264-2.799 6.264-6.263v-139.554c0.017-3.464-2.799-6.264-6.255-6.264zM385.144 350.353c-4.77 3.132-11.563 1.638-14.661-3.080l-113.459-173.355-60.621 56.081c-4.13 3.815-11.153 3.55-15.001-0.597-1.937-2.090-2.935-4.796-2.816-7.621 0.119-2.833 1.322-5.453 3.413-7.382l71.953-65.945 2.56-1.050 1.416-0.205 3.123 0.034 4.070 1.69 1.834 1.322 1.186 1.843 120.064 183.518c3.209 4.915 1.843 11.537-3.063 14.745z" />
<glyph unicode="&#xe631;" glyph-name="overview" data-tags="overview" d="M371.806 156.954h-231.612c-6.725 0-12.194 5.47-12.194 12.194v170.667c0 6.724 5.47 12.185 12.194 12.185h231.62c6.716 0 12.185-5.462 12.185-12.194v-170.667c0-6.724-5.47-12.185-12.194-12.185zM371.806 169.139v0zM140.194 339.806v-170.667h231.603l0.017 170.667h-231.62zM194.466 96c-1.561 0-3.123 0.589-4.31 1.784-2.381 2.381-2.381 6.238 0 8.627l56.022 56.030c2.381 2.381 6.238 2.381 8.619 0 2.381-2.389 2.381-6.238 0-8.618l-56.022-56.038c-1.195-1.195-2.748-1.784-4.309-1.784zM311.441 96c-1.562 0-3.115 0.589-4.31 1.784l-56.022 56.038c-2.381 2.373-2.381 6.221 0 8.618 2.381 2.381 6.238 2.381 8.61 0l56.022-56.030c2.381-2.381 2.381-6.238 0-8.627-1.186-1.195-2.739-1.784-4.301-1.784z" />
<glyph unicode="&#xe632;" glyph-name="past_events" data-tags="past_events" d="M385.238 96h-258.474c-7.501 0-13.602 6.101-13.602 13.602v190.456c0 7.501 6.102 13.602 13.602 13.602h258.474c7.51 0 13.611-6.101 13.611-13.602v-190.456c-0.009-7.501-6.11-13.602-13.611-13.602zM385.238 109.602v0zM126.763 300.058v-190.456h258.457l0.017 190.456h-258.474zM191.607 270.379c-3.755 0-6.801 3.046-6.801 6.801v68.019c0 3.755 3.047 6.801 6.801 6.801 3.746 0 6.801-3.047 6.801-6.801v-68.019c0-3.755-3.047-6.801-6.801-6.801zM321.69 270.379c-3.755 0-6.801 3.046-6.801 6.801v68.019c0 3.755 3.038 6.801 6.801 6.801s6.81-3.047 6.81-6.801v-68.019c0-3.755-3.038-6.801-6.81-6.801zM210.662 208.239c1.741 0 3.482-0.657 4.804-1.988l40.534-40.542 40.534 40.542c2.663 2.663 6.954 2.663 9.617 0s2.663-6.946 0-9.617l-45.337-45.354c-2.551-2.551-7.065-2.551-9.617 0l-45.338 45.355c-2.662 2.663-2.662 6.954 0 9.617 1.314 1.331 3.055 1.988 4.804 1.988zM256 258.116c3.755 0 6.801-3.038 6.801-6.801v-95.224c0-3.763-3.046-6.801-6.801-6.801s-6.801 3.029-6.801 6.801v95.215c0 3.763 3.047 6.809 6.801 6.809z" />
<glyph unicode="&#xe633;" glyph-name="payments_options" data-tags="payments_options" d="M382.216 198.4h-17.596v119.995c0 20.736-9.668 33.605-30.395 33.605h-160c-20.727 0-46.404-12.869-46.404-33.605v-176c0-20.736 25.677-46.404 46.404-46.404h160c20.736 0 30.395 25.668 30.395 46.404v11.204h17.596c3.098 0 1.604 9.719 1.604 12.8v32c0 3.080 1.493 0-1.604 0zM140.621 318.395c0 14.558 19.047 20.805 33.605 20.805h160c14.55 0 17.596-6.247 17.596-20.805v-69.034l0.546 2.918c-4.685 3.55-7.586 5.897-12.971 6.971l-1.015 0.427 0.896 2.927 0.264 53.777c0 3.089-2.236 3.592-5.317 3.592h-152.005c-11.887 0-26.445-3.567-33.673-13.278l-7.928-3.798v15.497zM182.221 288c-9.054 0-17.195-3.789-20.267-12.408l-2.262-5.342-2.262 6.835c-1.083 3.046-1.613 3.379-1.613 6.263 0 14.558 11.853 23.851 26.402 23.851h137.6v-19.2h-137.6zM319.821 275.2v-19.2h-137.6c-5.734 0-10.402 3.865-10.402 9.6s4.667 9.6 10.402 9.6h137.6zM351.821 142.404c0-14.55-3.046-33.605-17.596-33.605h-160c-14.549 0-33.605 19.046-33.605 33.605v117.026l7.45-5.718c6.665-5.052 18.065-10.513 26.146-10.513h160c14.55 0 17.596-6.246 17.596-20.805v-23.995h-33.605c-11.904 0-21.598-10.488-21.598-22.4s9.702-22.4 21.598-22.4h33.605v-11.195zM371.021 166.4h-52.805c-5.735 0-10.402 3.865-10.402 9.6s4.668 9.6 10.402 9.6h52.805v-19.2z" />
<glyph unicode="&#xe634;" glyph-name="personal_settings" data-tags="personal_settings" d="M379.938 195.601h4.062v55.45h-36.275c-1.894 6.486-4.471 12.749-7.705 18.705l25.617 25.617-2.867 2.875-36.352 36.344-2.867-2.875-22.827-22.827c-5.649 3.021-11.571 5.487-17.673 7.313v35.797h-55.466v-35.798c-5.794-1.75-11.426-4.045-16.793-6.853l-25.233 25.233-2.867-2.875-36.335-36.344 24.73-24.738c-3.234-5.811-5.854-11.921-7.791-18.236h-35.294v-55.458h34.918c1.98-6.801 4.736-13.363 8.184-19.584l-24.73-24.747 39.202-39.219 2.875 2.867 22.358 22.366c5.768-3.021 11.853-5.453 18.15-7.236v-35.379h55.458v36.207c5.632 1.784 11.102 4.096 16.325 6.904l25.694-25.702 2.875 2.885 36.344 36.335-25.617 25.617c3.021 5.546 5.47 11.384 7.313 17.365l32.589-0.009zM312.798 224c0-31.702-25.779-57.481-57.481-57.481-31.693 0-57.481 25.779-57.481 57.481 0 31.693 25.787 57.481 57.481 57.481 31.702 0 57.481-25.787 57.481-57.481z" />
<glyph unicode="&#xe635;" glyph-name="plus" data-tags="plus" d="M377.907 217.907h-243.815c-3.362 0-6.093 2.731-6.093 6.093s2.73 6.093 6.093 6.093h243.815c3.37 0 6.093-2.731 6.093-6.093s-2.722-6.093-6.093-6.093zM256 96c-3.362 0-6.093 2.722-6.093 6.093v243.815c0 3.362 2.731 6.093 6.093 6.093s6.093-2.731 6.093-6.093v-243.815c0-3.37-2.731-6.093-6.093-6.093z" />
<glyph unicode="&#xe636;" glyph-name="powerd_1" data-tags="powerd_1" d="M74.931 189.056v0.64c4.361 0.726 7.85 2.91 10.471 6.502 2.645 3.575 3.977 8.149 3.977 13.755 0 8.252-3.021 14.268-9.020 18.048-6.007 3.78-15.659 5.666-28.945 5.666h-29.175v-93.704h35.063c10.582 0 18.995 2.381 25.157 7.176s9.258 11.452 9.258 19.993c0 6.041-1.314 10.854-3.942 14.464-2.62 3.678-6.895 6.135-12.843 7.458zM42.112 217.395h10.453c5.691 0 9.831-0.785 12.475-2.321 2.629-1.545 3.934-4.13 3.934-7.697 0-3.857-1.221-6.613-3.626-8.286-2.415-1.681-6.315-2.491-11.691-2.491h-11.546v20.796zM67.183 159.505c-2.603-2.099-6.63-3.14-12.109-3.14h-12.971v24.423h12.305c11.119 0 16.674-3.899 16.674-11.648 0.008-4.327-1.297-7.535-3.9-9.634zM116.079 239.71c-7.091 0-10.65-3.191-10.65-9.558 0-6.391 3.541-9.609 10.65-9.609 3.541 0 6.213 0.845 7.987 2.534 1.766 1.69 2.662 4.062 2.662 7.074-0.017 6.366-3.567 9.558-10.65 9.558zM106.257 139.964h19.541v71.671h-19.541v-71.671zM191.292 198.921v12.723h-53.453v-14.959h31.215l-33.203-45.184v-11.537h56.601v14.925h-33.468l32.307 44.032zM254.968 198.921v12.723h-53.462v-14.959h31.207l-33.203-45.184v-11.537h56.601v14.925h-33.451l32.307 44.032zM299.298 213.103c-10.035 0-19.192-2.176-27.426-6.494l6.451-13.192c7.748 3.481 14.473 5.205 20.199 5.205 7.441 0 11.17-3.652 11.17-10.914v-3.123l-12.45-0.426c-10.726-0.367-18.731-2.363-24.072-5.974-5.325-3.61-7.962-9.224-7.962-16.827 0-7.262 1.954-12.877 5.913-16.802 3.942-3.925 9.378-5.888 16.264-5.888 5.598 0 10.129 0.81 13.611 2.406s6.878 4.471 10.154 8.627h0.529l3.755-9.762h13.654v47.769c0 8.55-2.56 14.908-7.663 19.098-5.137 4.181-12.536 6.298-22.127 6.298zM309.692 167.271c0-4.318-1.374-7.791-4.079-10.385-2.697-2.62-6.315-3.917-10.863-3.917-6.323 0-9.514 2.748-9.514 8.277 0 3.849 1.399 6.707 4.182 8.593 2.757 1.886 6.989 2.91 12.689 3.072l7.552 0.273v-5.905l0.034-0.009zM384.401 212.966c-8.969 0-15.736-3.541-20.301-10.641h-0.768c0.503 6.519 0.768 11.23 0.768 14.174v23.21h-19.558v-99.737h14.925l3.277 7.902h1.349c4.787-6.11 11.392-9.173 19.789-9.173 8.507 0 15.24 3.234 20.156 9.753 4.95 6.486 7.416 15.659 7.416 27.52 0 11.478-2.406 20.522-7.168 27.136-4.796 6.57-11.409 9.856-19.882 9.856zM387.976 160.068c-2.373-3.712-5.581-5.538-9.575-5.538-4.975 0-8.601 1.639-10.88 4.983-2.296 3.337-3.413 8.849-3.413 16.546v2.116c0.094 6.827 1.221 11.733 3.447 14.703 2.227 2.978 5.735 4.471 10.582 4.471 4.147 0 7.416-1.775 9.805-5.308s3.61-8.798 3.61-15.872c0-7.040-1.203-12.425-3.575-16.103zM485.529 195.592c-2.808 5.598-6.878 9.899-12.143 12.894-5.231 2.995-11.298 4.471-18.185 4.471-11.067 0-19.67-3.251-25.779-9.728-6.101-6.511-9.165-15.616-9.165-27.306 0-7.535 1.408-14.123 4.233-19.763 2.825-5.598 6.861-9.959 12.118-12.954 5.248-3.021 11.307-4.522 18.219-4.522 10.957 0 19.541 3.277 25.694 9.865 6.152 6.579 9.241 15.727 9.241 27.409 0 7.493-1.416 14.038-4.233 19.635zM466.338 159.803c-2.313-3.618-6.058-5.41-11.255-5.41-5.257 0-9.054 1.792-11.401 5.453-2.321 3.635-3.481 8.977-3.481 16.094 0 7.125 1.161 12.476 3.464 15.974 2.304 3.55 6.067 5.274 11.272 5.274 5.274 0 9.037-1.758 11.358-5.291 2.313-3.533 3.456-8.875 3.456-15.957 0.009-7.176-1.135-12.527-3.413-16.137zM147.345 258.099l10.599 36.813h-9.847l-4.411-16.298c-0.222-0.955-0.589-2.808-1.093-5.589-0.495-2.731-0.845-4.898-1.049-6.486h-0.188c-0.025 0.623-0.102 1.433-0.248 2.449-0.145 1.024-0.307 2.056-0.487 3.123s-0.35 2.073-0.529 3.021c-0.188 0.939-0.333 1.647-0.427 2.134l-4.327 17.655h-11.067l-4.549-17.655-0.529-2.808c-0.674-3.618-1.067-6.255-1.16-7.928h-0.179c-0.7 5.137-1.4 9.156-2.082 12.075l-4.241 16.315h-10.001l10.479-36.813h10.794l6.725 29.15h0.222l3.823-16.273 2.833-12.886h10.94zM32.453 297.881h4.642c2.791 0 4.839-0.563 6.152-1.715 1.297-1.135 1.954-2.901 1.954-5.291 0-2.373-0.776-4.164-2.338-5.427-1.57-1.237-3.909-1.861-7.048-1.861h-3.362v14.293zM50.953 302.481c-3.055 2.518-7.483 3.755-13.329 3.755h-15.386v-48.154h10.206v17.144h4.386c5.956 0 10.556 1.382 13.807 4.113 3.242 2.739 4.864 6.707 4.864 11.913 0.008 4.966-1.511 8.712-4.548 11.23zM73.575 284.792c1.195 1.817 3.115 2.722 5.802 2.722 2.697 0 4.65-0.904 5.846-2.731 1.186-1.826 1.775-4.574 1.775-8.201 0-3.652-0.581-6.417-1.766-8.286-1.169-1.835-3.097-2.774-5.777-2.774-2.688 0-4.633 0.93-5.846 2.799-1.212 1.851-1.809 4.608-1.809 8.26 0 3.687 0.597 6.4 1.775 8.209zM95.079 286.669c-1.442 2.885-3.516 5.095-6.221 6.648-2.705 1.528-5.829 2.296-9.361 2.296-5.692 0-10.112-1.673-13.243-5.026-3.132-3.311-4.71-7.978-4.71-14.003 0-3.865 0.734-7.245 2.184-10.146 1.459-2.901 3.533-5.129 6.221-6.656 2.705-1.561 5.829-2.329 9.361-2.329 5.632 0 10.035 1.69 13.184 5.077 3.174 3.379 4.753 8.072 4.753 14.063 0 3.849-0.717 7.227-2.168 10.078zM183.254 286.438c1.255-1.339 1.903-3.268 1.946-5.751h-14.089c0.179 2.483 0.862 4.411 2.073 5.751 1.203 1.349 2.867 2.023 5.009 2.023 2.117 0.009 3.806-0.666 5.060-2.023zM186.897 258.082c1.997 0.435 3.882 1.101 5.632 1.954v7.782c-2.167-0.998-4.207-1.732-6.195-2.193-1.963-0.452-4.071-0.708-6.289-0.708-2.85 0-5.060 0.81-6.648 2.406-1.587 1.613-2.432 3.823-2.543 6.682h23.739v4.881c0 5.206-1.451 9.327-4.352 12.288-2.901 2.952-6.929 4.438-12.143 4.438-5.445 0-9.72-1.673-12.791-5.060-3.081-3.379-4.625-8.133-4.625-14.319 0-5.99 1.664-10.607 5-13.901 3.345-3.251 7.978-4.873 13.883-4.873 2.893-0.008 5.333 0.196 7.33 0.623zM214.648 293.717c-1.937-1.271-3.473-2.927-4.617-4.992h-0.487l-1.476 6.187h-7.603v-36.813h10.035v18.757c0 2.969 0.905 5.239 2.679 6.895 1.8 1.664 4.301 2.491 7.493 2.491 1.178 0 2.159-0.111 2.978-0.341l0.751 9.421c-0.905 0.213-2.031 0.29-3.387 0.29-2.296 0-4.421-0.631-6.366-1.894zM288.461 262.895h0.443l1.937-4.795h7.714v51.234h-10.095v-11.785c0-2.159 0.256-4.608 0.768-7.338h-0.325c-2.432 3.609-5.974 5.401-10.607 5.401-4.421 0-7.885-1.673-10.394-5.060s-3.763-8.072-3.763-14.114c0-5.957 1.229-10.599 3.695-13.961 2.483-3.353 5.871-5.034 10.197-5.034 4.693 0.009 8.149 1.809 10.428 5.453v0zM276.199 268.16c-1.246 1.817-1.877 4.531-1.877 8.141 0 3.627 0.623 6.392 1.861 8.277 1.229 1.912 2.978 2.859 5.214 2.859 2.739 0 4.745-0.862 5.947-2.577s1.826-4.566 1.826-8.517v-1.075c-0.103-3.567-0.768-6.11-1.954-7.612-1.221-1.485-3.080-2.219-5.658-2.219-2.313 0.009-4.104 0.922-5.359 2.722zM337.024 290.15h-0.418c0.256 3.328 0.418 5.743 0.418 7.279v11.904h-10.061v-51.234h7.68l1.698 4.062h0.7c2.423-3.141 5.837-4.71 10.146-4.71 4.377 0 7.842 1.673 10.351 5.017 2.56 3.328 3.806 8.038 3.806 14.123 0 5.897-1.203 10.555-3.695 13.935-2.44 3.405-5.854 5.094-10.197 5.094-4.599-0.008-8.081-1.817-10.428-5.47v0zM349.278 284.869c1.229-1.826 1.843-4.54 1.843-8.167 0-3.61-0.615-6.383-1.826-8.278-1.221-1.894-2.875-2.85-4.933-2.85-2.543 0-4.403 0.853-5.572 2.585-1.203 1.698-1.758 4.54-1.758 8.49v1.101c0.060 3.507 0.623 6.024 1.775 7.543 1.135 1.528 2.952 2.279 5.435 2.279 2.125-0.008 3.798-0.904 5.034-2.705zM378.675 258.363l-0.598-1.809c-0.751-2.193-1.792-3.848-3.115-4.923-1.314-1.093-2.893-1.638-4.668-1.638-1.45 0-2.722 0.171-3.951 0.435v-7.962c1.681-0.375 3.413-0.571 5.111-0.571 3.524 0 6.622 0.964 9.284 2.885 2.663 1.903 4.668 4.779 6.101 8.61l15.574 41.549h-10.777l-6.844-20.727c-0.666-1.988-1.169-4.13-1.399-6.392h-0.179c-0.231 2.466-0.64 4.599-1.221 6.392l-6.954 20.719h-11l14.635-36.565zM246.631 286.438c1.246-1.339 1.894-3.268 1.946-5.751h-14.097c0.179 2.483 0.87 4.411 2.073 5.751 1.212 1.349 2.875 2.023 5.018 2.023 2.117 0.009 3.815-0.666 5.060-2.023zM250.282 258.082c1.988 0.435 3.874 1.101 5.624 1.954v7.782c-2.159-0.998-4.198-1.732-6.186-2.193-1.963-0.452-4.071-0.708-6.289-0.708-2.858 0-5.060 0.81-6.648 2.406-1.587 1.613-2.432 3.823-2.543 6.682h23.731v4.881c0 5.206-1.45 9.327-4.352 12.288-2.893 2.952-6.929 4.438-12.135 4.438-5.453 0-9.72-1.673-12.8-5.060-3.089-3.379-4.633-8.133-4.633-14.319 0-5.99 1.664-10.607 5-13.901 3.353-3.251 7.978-4.873 13.893-4.873 2.893-0.008 5.333 0.196 7.339 0.623z" />
<glyph unicode="&#xe637;" glyph-name="powerd_2" data-tags="powerd_2" d="M74.939 189.048v0.64c4.369 0.751 7.85 2.927 10.479 6.502 2.645 3.592 3.968 8.158 3.968 13.773 0 8.243-3.021 14.259-9.020 18.048-6.016 3.772-15.65 5.666-28.945 5.666h-29.167v-93.704h35.063c10.59 0 19.004 2.381 25.165 7.176 6.169 4.796 9.25 11.469 9.25 20.002 0 6.033-1.314 10.846-3.951 14.464-2.62 3.678-6.895 6.11-12.843 7.433zM42.12 217.387h10.445c5.691 0 9.839-0.76 12.467-2.321 2.629-1.545 3.942-4.113 3.942-7.697 0-3.849-1.221-6.587-3.635-8.26-2.415-1.707-6.323-2.491-11.691-2.491h-11.529v20.77zM67.192 159.505c-2.603-2.108-6.63-3.14-12.1-3.14h-12.971v24.431h12.305c11.128 0 16.674-3.917 16.674-11.656 0-4.318-1.314-7.535-3.909-9.634zM116.088 239.702c-7.091 0-10.65-3.183-10.65-9.549 0-6.4 3.541-9.6 10.65-9.6 3.541 0 6.204 0.845 7.987 2.534 1.766 1.681 2.662 4.071 2.662 7.074-0.008 6.357-3.567 9.541-10.65 9.541zM106.266 139.964h19.55v71.68h-19.55v-71.68zM191.309 198.929v12.714h-53.462v-14.976h31.215l-33.203-45.175v-11.537h56.593v14.925h-33.468l32.325 44.049zM254.984 198.929v12.714h-53.47v-14.976h31.215l-33.212-45.175v-11.537h56.602v14.925h-33.442l32.307 44.049zM299.298 213.12c-10.026 0-19.183-2.176-27.435-6.502l6.469-13.184c7.723 3.447 14.464 5.188 20.19 5.188 7.45 0 11.161-3.644 11.161-10.923v-3.098l-12.45-0.443c-10.718-0.358-18.722-2.355-24.064-5.982-5.325-3.618-7.97-9.216-7.97-16.819 0-7.253 1.962-12.868 5.93-16.802 3.925-3.917 9.37-5.888 16.248-5.888 5.606 0 10.137 0.819 13.619 2.398 3.49 1.604 6.87 4.471 10.163 8.627h0.521l3.763-9.745h13.654v47.752c0 8.576-2.577 14.925-7.663 19.115-5.137 4.173-12.553 6.306-22.135 6.306zM309.683 167.279c0-4.318-1.357-7.791-4.053-10.402-2.731-2.594-6.332-3.899-10.897-3.899-6.298 0-9.506 2.731-9.506 8.26 0 3.874 1.416 6.724 4.173 8.601 2.774 1.877 6.989 2.901 12.723 3.063l7.543 0.281v-5.897l0.017-0.009zM384.384 212.975c-8.943 0-15.719-3.533-20.267-10.649h-0.785c0.503 6.519 0.785 11.221 0.785 14.174v23.202h-19.584v-99.738h14.933l3.269 7.894h1.365c4.77-6.084 11.375-9.165 19.772-9.165 8.507 0 15.249 3.251 20.164 9.762 4.95 6.494 7.416 15.659 7.416 27.512 0 11.486-2.406 20.531-7.168 27.153-4.787 6.553-11.418 9.856-19.899 9.856zM387.976 160.060c-2.363-3.712-5.589-5.529-9.583-5.529-4.958 0-8.593 1.639-10.872 4.983-2.304 3.337-3.397 8.849-3.397 16.538v2.125c0.068 6.827 1.203 11.725 3.43 14.695 2.236 2.978 5.735 4.48 10.582 4.48 4.147 0 7.407-1.784 9.813-5.317 2.381-3.524 3.601-8.798 3.601-15.863 0-7.040-1.203-12.408-3.575-16.111zM485.512 195.61c-2.799 5.581-6.861 9.882-12.135 12.885-5.223 2.995-11.272 4.471-18.176 4.471-11.067 0-19.678-3.26-25.77-9.745-6.118-6.519-9.173-15.599-9.173-27.281 0-7.552 1.399-14.131 4.224-19.781 2.816-5.606 6.861-9.959 12.126-12.962 5.24-3.021 11.281-4.514 18.21-4.514 10.966 0 19.541 3.277 25.685 9.856 6.161 6.596 9.259 15.744 9.259 27.418 0.009 7.501-1.425 14.038-4.25 19.652zM466.329 159.813c-2.304-3.627-6.041-5.418-11.264-5.418-5.248 0-9.046 1.792-11.384 5.453-2.321 3.644-3.481 8.986-3.481 16.103 0 7.099 1.161 12.45 3.464 15.957 2.304 3.558 6.050 5.274 11.281 5.274 5.257 0 9.029-1.733 11.349-5.299 2.313-3.524 3.464-8.866 3.464-15.931 0.009-7.176-1.144-12.519-3.43-16.137zM147.353 258.107l10.59 36.813h-9.839l-4.411-16.307c-0.214-0.947-0.589-2.808-1.093-5.59-0.504-2.739-0.845-4.906-1.041-6.486h-0.205c-0.017 0.632-0.094 1.442-0.248 2.458-0.128 1.024-0.298 2.065-0.487 3.123-0.179 1.067-0.35 2.073-0.529 3.021-0.188 0.939-0.333 1.639-0.427 2.125l-4.318 17.656h-11.067l-4.54-17.656-0.537-2.799c-0.674-3.626-1.067-6.272-1.144-7.936h-0.188c-0.691 5.146-1.391 9.157-2.082 12.075l-4.249 16.315h-10.001l10.479-36.813h10.803l6.716 29.142h0.239l3.823-16.273 2.833-12.877 10.922 0.008zM32.469 297.89h4.633c2.799 0 4.838-0.572 6.153-1.715 1.306-1.143 1.946-2.901 1.946-5.29s-0.768-4.182-2.33-5.436c-1.562-1.246-3.9-1.861-7.040-1.861h-3.362v14.302zM50.953 302.481c-3.047 2.526-7.466 3.763-13.312 3.763h-15.386v-48.145h10.215v17.127h4.377c5.965 0 10.556 1.382 13.816 4.113 3.242 2.748 4.855 6.716 4.855 11.913-0.008 4.966-1.519 8.721-4.566 11.23zM73.583 284.783c1.195 1.817 3.115 2.731 5.811 2.731s4.633-0.913 5.846-2.739c1.177-1.826 1.775-4.582 1.775-8.192 0-3.653-0.589-6.417-1.766-8.286-1.177-1.843-3.106-2.774-5.794-2.774s-4.625 0.93-5.846 2.808c-1.203 1.851-1.792 4.608-1.792 8.261 0 3.669 0.589 6.391 1.766 8.192zM95.087 286.669c-1.433 2.885-3.516 5.086-6.221 6.639-2.705 1.528-5.837 2.296-9.361 2.296-5.683 0-10.103-1.673-13.243-5.018-3.123-3.311-4.702-7.978-4.702-13.995 0-3.865 0.717-7.253 2.176-10.154s3.533-5.12 6.23-6.656c2.697-1.553 5.811-2.338 9.352-2.338 5.632 0 10.035 1.698 13.184 5.077 3.174 3.388 4.745 8.072 4.745 14.063 0 3.857-0.717 7.228-2.159 10.087zM183.262 286.438c1.255-1.339 1.894-3.26 1.937-5.751h-14.097c0.179 2.491 0.879 4.411 2.082 5.751 1.212 1.349 2.875 2.031 5.009 2.031s3.815-0.683 5.069-2.031zM186.905 258.091c1.997 0.426 3.874 1.092 5.624 1.962v7.774c-2.159-1.007-4.198-1.741-6.195-2.193-1.954-0.461-4.071-0.709-6.28-0.709-2.858 0-5.060 0.802-6.656 2.406-1.587 1.605-2.432 3.832-2.543 6.673h23.739v4.881c0 5.197-1.442 9.31-4.344 12.28-2.901 2.944-6.929 4.438-12.143 4.438-5.445 0-9.72-1.673-12.792-5.051-3.089-3.388-4.633-8.141-4.633-14.311 0-5.999 1.664-10.607 5-13.909 3.337-3.243 7.97-4.881 13.883-4.881 2.91-0.009 5.342 0.213 7.339 0.64zM214.656 293.717c-1.937-1.28-3.482-2.935-4.625-4.992h-0.478l-1.485 6.187h-7.595v-36.813h10.026v18.757c0 2.978 0.896 5.248 2.671 6.904 1.8 1.664 4.309 2.483 7.493 2.483 1.169 0 2.159-0.102 2.978-0.333l0.751 9.421c-0.905 0.222-2.040 0.29-3.397 0.29-2.262-0.017-4.403-0.64-6.34-1.903zM288.469 262.895h0.426l1.945-4.787h7.714v51.226h-10.087v-11.776c0-2.159 0.248-4.616 0.751-7.356h-0.325c-2.415 3.61-5.957 5.401-10.59 5.401-4.438 0-7.902-1.673-10.411-5.051-2.509-3.388-3.746-8.072-3.746-14.114 0-5.957 1.212-10.599 3.695-13.961 2.474-3.362 5.863-5.043 10.189-5.043 4.685 0.009 8.149 1.817 10.437 5.462v0zM276.199 268.16c-1.246 1.817-1.869 4.531-1.869 8.149s0.623 6.383 1.851 8.269c1.221 1.903 2.986 2.85 5.205 2.85 2.748 0 4.753-0.853 5.957-2.577 1.203-1.715 1.826-4.557 1.826-8.517v-1.075c-0.111-3.567-0.776-6.101-1.954-7.603-1.212-1.485-3.072-2.227-5.658-2.227-2.329 0.017-4.096 0.93-5.359 2.731zM337.015 290.15h-0.401c0.248 3.328 0.401 5.743 0.401 7.271v11.912h-10.053v-51.225h7.688l1.69 4.053h0.7c2.423-3.141 5.829-4.71 10.146-4.71 4.361 0 7.834 1.673 10.351 5.026 2.568 3.328 3.798 8.030 3.798 14.123 0 5.905-1.186 10.555-3.687 13.926-2.449 3.405-5.846 5.094-10.197 5.094-4.599-0.017-8.089-1.817-10.437-5.47v0zM349.286 284.86c1.221-1.809 1.834-4.531 1.834-8.167 0-3.601-0.615-6.375-1.826-8.269-1.238-1.903-2.893-2.85-4.941-2.85-2.526 0-4.386 0.845-5.563 2.577-1.221 1.698-1.767 4.531-1.767 8.49v1.101c0.051 3.516 0.632 6.024 1.792 7.535 1.135 1.536 2.927 2.287 5.418 2.287 2.125 0 3.798-0.896 5.051-2.705zM378.675 258.363l-0.606-1.792c-0.743-2.202-1.775-3.849-3.098-4.933-1.331-1.101-2.91-1.638-4.676-1.638-1.45 0-2.731 0.162-3.951 0.435v-7.962c1.673-0.375 3.422-0.571 5.111-0.571 3.524 0 6.613 0.956 9.267 2.867 2.663 1.903 4.676 4.787 6.118 8.619l15.565 41.549h-10.769l-6.835-20.736c-0.674-1.98-1.169-4.121-1.416-6.375h-0.179c-0.231 2.457-0.657 4.591-1.212 6.375l-6.963 20.736h-10.991l14.635-36.574zM246.639 286.438c1.246-1.339 1.886-3.26 1.937-5.751h-14.089c0.171 2.491 0.862 4.411 2.073 5.751 1.203 1.349 2.867 2.031 5.018 2.031 2.107 0 3.815-0.683 5.060-2.031zM250.282 258.091c1.997 0.426 3.891 1.092 5.641 1.962v7.774c-2.159-1.007-4.207-1.741-6.186-2.193-1.971-0.461-4.071-0.709-6.298-0.709-2.85 0-5.060 0.802-6.648 2.406s-2.432 3.832-2.535 6.673h23.731v4.881c0 5.197-1.45 9.31-4.344 12.28-2.901 2.944-6.946 4.438-12.143 4.438-5.445 0-9.728-1.673-12.809-5.051-3.081-3.388-4.625-8.141-4.625-14.311 0-5.999 1.673-10.607 5-13.909 3.345-3.243 7.962-4.881 13.875-4.881 2.901-0.009 5.333 0.213 7.339 0.64z" />
<glyph unicode="&#xe638;" glyph-name="privacy" data-tags="privacy" d="M347.426 96h-182.852c-3.362 0-6.093 2.722-6.093 6.093v143.419c0 3.37 2.731 6.093 6.093 6.093h182.852c3.379 0 6.101-2.731 6.101-6.093v-143.419c0-3.37-2.731-6.093-6.101-6.093zM170.667 108.194h170.667v131.217h-170.667v-131.217zM308.241 239.411c-3.379 0-6.101 2.731-6.101 6.093v48.239c0 25.404-20.702 46.063-46.139 46.063s-46.139-20.659-46.139-46.063v-45.201c0-3.362-2.731-6.093-6.093-6.093-3.37 0-6.093 2.731-6.093 6.093v45.201c0 32.128 26.163 58.257 58.325 58.257 32.171 0 58.334-26.129 58.334-58.257v-48.239c0-3.362-2.722-6.093-6.093-6.093z" />
<glyph unicode="&#xe639;" glyph-name="promo_codes" data-tags="promo_codes" d="M119.466 352h13.005v-256h-13.005v256zM379.537 352h12.997v-256h-12.997v256zM347.025 352h12.997v-211.2h-12.997v211.2zM314.513 352h12.997v-211.2h-12.997v211.2zM275.507 352h19.498v-211.2h-19.498v211.2zM248.414 352h8.67v-211.2h-8.67v211.2zM216.994 352h12.996v-211.2h-12.996v211.2zM177.98 352h26.010v-211.2h-26.010v211.2zM151.978 352h13.005v-211.2h-13.005v211.2z" />
<glyph unicode="&#xe63a;" glyph-name="promote" data-tags="promote" d="M384.435 331.452l-251.981-58.231c-2.304 6.69-6.793 11.127-12.058 11.127-7.697 0-13.722-9.472-13.722-21.555v-59.887c0-12.091 6.033-21.546 13.722-21.546 5.265 0 10.905 4.438 13.209 11.127l22.835-5.034v-46.302c0-15.514 6.494-22.562 21.222-22.562h83.379c16.401 0 30.515 7.51 30.515 22.562v15.317l94.379-22.229c1.416-0.315 1.945-0.486 3.32-0.486 4.805 0 8.738 1.971 11.878 5.581 3.003 3.439 4.207 8.175 4.207 13.32v160.384c-0.009 12.493-9.591 21.043-20.906 18.415zM277.334 141.15c0-8.005-10.479-7.475-16.29-7.475h-83.379c-6.869 0-6.998 0.307-6.998 7.475v43l106.666-24.38v-18.62zM391.117 152.653c0-1.339-0.315-2.44-0.879-3.089-0.162-0.171-0.632-0.726-1.869-0.726-0.358 0-0.751 0.051-1.169 0.145l-254.907 58.957c-2.91 3.439-9.174 2.825-11.409-1.178v52.181c2.236-4.002 8.499-4.625 11.409-1.178l255.155 58.966c2.363 0.546 3.661-0.606 3.661-3.687v-160.392z" />
<glyph unicode="&#xe63b;" glyph-name="purchase_conversion" data-tags="purchase_conversion" d="M352 129.664c0-5.947-3.379-10.906-7.646-15.155s-10.513-6.306-16.478-6.306h-177.288c-5.939 0-12.211 2.057-16.478 6.306-4.241 4.25-7.646 9.216-7.646 15.155v83.251c0 3.37-0.077 4.992-3.439 4.992h-2.654v24.371h20.48c2.040 0 3.942 2.483 5.077 4.181 0.401 0.606 0.717 1.784 1.016 2.125l63.488 69.017c1.058 1.126 1.357 2.97 1.357 4.505v4.327c0 3.883 1.442 7.048 3.832 9.703 2.27 2.5 4.975 3.67 7.919 3.67h20.002c3.32 0 5.913-1.169 8.184-3.678 2.398-2.646 3.559-5.811 3.559-9.694 0-0.939-0.137-1.894-0.367-2.85-0.504-1.997 0.051-4.113 1.45-5.624l29.926-32.205c1.911 3.781 4.13 7.364 6.656 10.735l-25.608 27.554c0.094 0.802 0.145 1.595 0.145 2.389 0 6.938-2.262 12.953-6.716 17.877-4.539 5.018-10.488 7.68-17.229 7.68h-20.002c-6.357 0-12.416-2.663-16.947-7.68-4.446-4.906-6.989-10.931-6.989-17.877v-1.929l-61.798-70.041h-26.138c-3.362 0-3.481 0.188-3.481-3.174v-38.383c0-3.379 0.128-7.211 3.481-7.211h2.611v-76.049c0-9.207 4.65-17.221 11.213-23.765 6.562-6.562 15.889-9.882 25.096-9.882h177.288c9.207 0 18.526 3.337 25.088 9.89 6.562 6.579 11.195 14.575 11.195 23.774v55.911c-6.101-0.726-12.194-1.161-12.194-1.178v-54.733h0.034zM241.988 303.24l37.197-41.096c0.469 5.086 1.467 9.421 2.969 14.114l-33.058 36.352c-1.152 1.238-2.765 2.816-4.454 2.816h-22.161c-1.698 0-3.328-1.894-4.48-3.141l-51.345-56.269c-1.638-1.775-2.073-6.11-1.109-8.337 0.973-2.219 3.166-5.401 5.581-5.401h108.425c-0.409 6.101-0.683 6.127-0.683 9.275 0 0.99 0.103 2.918 0.137 2.918h-93.952l40.106 48.768h16.827zM348.954 309.333c-30.285 0-54.861-24.567-54.861-54.861 0-30.302 24.576-54.852 54.861-54.852 30.302 0 54.878 24.55 54.878 54.852-0.034 30.293-24.601 54.861-54.878 54.861zM340.642 226.765l-27.699 27.708 11.094 11.076 16.606-16.623 33.246 33.246 11.085-11.085-44.331-44.322zM161.673 122.863c-3.362 0-6.246 1.331-8.627 3.976-2.363 2.663-3.567 5.829-3.567 9.404v64.179c0 3.942 1.203 7.279 3.567 9.899 4.719 5.299 12.501 5.317 17.246 0 2.355-2.646 3.559-5.957 3.559-9.899v-64.179c0-3.575-1.203-6.733-3.559-9.387-2.363-2.654-5.256-3.993-8.619-3.993zM161.673 208.426c-1.937 0-3.542-0.734-4.898-2.27-1.365-1.527-2.023-3.405-2.023-5.76v-64.179c0-1.971 0.657-3.704 2.023-5.205 2.714-3.046 7.083-3.046 9.797 0 1.365 1.527 2.031 3.234 2.031 5.205v64.179c0 2.338-0.666 4.233-2.031 5.76-1.357 1.536-2.961 2.27-4.898 2.27zM211.405 122.863c-3.37 0-6.255 1.331-8.636 3.976-2.363 2.663-3.559 5.829-3.559 9.404v64.179c0 3.942 1.195 7.279 3.559 9.916 4.719 5.282 12.501 5.299 17.246 0 2.355-2.663 3.559-5.974 3.559-9.916v-64.179c0-3.575-1.203-6.733-3.559-9.387s-5.256-3.993-8.61-3.993zM211.405 208.426c-1.946 0-3.55-0.734-4.906-2.27-1.365-1.527-2.031-3.405-2.031-5.743v-64.179c0-1.979 0.666-3.695 2.031-5.214 2.714-3.038 7.083-3.038 9.797 0 1.365 1.545 2.031 3.234 2.031 5.214v64.179c0 2.321-0.666 4.216-2.031 5.743-1.357 1.536-2.961 2.27-4.889 2.27zM267.077 122.863c-3.362 0-6.255 1.331-8.627 3.976-2.363 2.663-3.567 5.829-3.567 9.404v64.179c0 3.942 1.203 7.271 3.567 9.916 4.728 5.282 12.502 5.282 17.246 0 2.355-2.663 3.567-5.974 3.567-9.916v-64.179c0-3.575-1.212-6.733-3.567-9.387-2.381-2.654-5.282-3.993-8.618-3.993zM267.077 208.426c-1.945 0-3.541-0.734-4.906-2.27-1.365-1.527-2.022-3.405-2.022-5.743v-64.179c0-1.979 0.657-3.695 2.022-5.214 2.714-3.038 7.074-3.038 9.796 0 1.365 1.545 2.031 3.234 2.031 5.214v64.179c0 2.321-0.657 4.216-2.031 5.743-1.357 1.536-2.969 2.27-4.889 2.27zM327.62 188.749v-53.675c0-2.065-2.168-3.832-3.738-5.427-3.166-3.158-8.635-3.158-11.784 0-1.604 1.596-2.765 3.362-2.765 5.427v62.055c0 1.485-4.13 3.089-6.058 4.796-0.009-0.145-0.034-0.239-0.034-0.384v-66.483c0-3.729 1.101-6.981 3.84-9.745 2.748-2.731 5.965-4.122 9.848-4.122 3.899 0 8.567 1.391 11.306 4.122 2.739 2.757 5.478 6.016 5.478 9.745v51.729c-6.093 0.58-6.093 1.221-6.093 1.962z" />
<glyph unicode="&#xe63c;" glyph-name="refund" data-tags="refund" d="M427.921 235.929c-2.373 2.381-6.229 2.381-8.618 0l-35.303-35.302v23.373c0 70.579-57.421 128-128 128-36.71 0-71.714-15.795-96.017-43.341-2.227-2.526-1.988-6.383 0.529-8.61 2.526-2.227 6.375-1.988 8.61 0.538 21.99 24.926 53.657 39.219 86.878 39.219 63.855 0 115.806-51.951 115.806-115.806v-23.373l-35.311 35.303c-2.381 2.381-6.238 2.381-8.618 0s-2.381-6.238 0-8.619l45.704-45.705c1.195-1.186 2.748-1.784 4.31-1.784 1.57 0 3.123 0.598 4.318 1.784l45.704 45.704c2.398 2.381 2.398 6.238 0.009 8.619zM342.878 147.413c-21.99-24.935-53.657-39.228-86.878-39.228-63.863 0-115.806 51.951-115.806 115.806v23.381l35.311-35.302c1.186-1.195 2.748-1.792 4.309-1.792s3.123 0.598 4.31 1.792c2.389 2.373 2.389 6.229 0 8.618l-45.713 45.713c-2.381 2.381-6.23 2.381-8.619 0l-45.713-45.713c-2.381-2.381-2.381-6.238 0-8.618s6.23-2.381 8.618 0l35.302 35.311v-23.381c0-70.579 57.421-128 128-128 36.719 0 71.714 15.803 96.017 43.332 2.227 2.534 1.988 6.383-0.529 8.61s-6.375 1.979-8.61-0.529zM245.487 188.425c-1.169 1.161-1.869 2.568-2.475 4.19-0.614 1.622-0.896 4.19-1.049 6.178-0.154 1.962-0.137 0.827-0.137 6.929h-22.4v-4.719c0-3.959 1.066-7.723 1.826-11.281s2.56-6.724 4.685-9.523c2.133-2.782 4.95-5.017 8.857-6.699s9.011-2.765 15.104-3.277v-13.269h12.185v13.269c6.101 0.709 16.879 3.498 22.101 8.371 5.223 4.881 7.424 12.8 7.424 23.774 0 4.267-0.666 7.877-1.587 10.812-0.896 2.952-2.287 5.47-3.917 7.543-1.622 2.074-3.635 3.832-5.913 5.265-2.287 1.417-4.053 2.731-6.887 3.951l-11.221 4.881v28.8c0-0.81 3.635-2.748 4.659-5.334 1.007-2.594 0.726-3.814 0.837-9.907h18.893v2.594c0 3.353 0.657 6.656-0.145 9.907-0.827 3.251-1.767 6.195-3.891 8.832-2.134 2.645-3.909 4.856-7.501 6.63-3.61 1.775-6.75 2.91-12.851 3.422v11.272h-12.185v-11.272c-6.093-1.016-15.795-4.088-20.727-9.216-4.933-5.137-7.194-12.425-7.194-21.871 0-7.006 1.715-12.979 4.966-17.911s8.251-8.712 15.667-11.349l7.287-2.731v-30.779c0.008 0.512-3.243 1.339-4.411 2.517zM262.093 212.881c0-1.527 4.318-3.405 5.794-5.64s1.792-5.282 1.792-9.147c0-2.841-0.060-5.401-1.425-7.68-1.374-2.296-6.161-3.789-6.161-4.497v26.966zM242.44 252.049c0 6.289 1.374 10.155 7.466 11.571v-24.38c-6.101 2.841-7.466 7.108-7.466 12.809z" />
<glyph unicode="&#xe63d;" glyph-name="new_member" data-tags="new_member" d="M285.637 185.455c-2.799 0-5.069-2.279-5.069-5.077 0-2.791 2.27-5.069 5.069-5.069 29.167 0 52.906-27.964 52.906-57.13 0-5.197-4.224-13.654-9.421-13.654h-188.433c-5.189 0-9.421 8.448-9.421 13.654 0 29.167 23.739 54.998 52.915 54.998 2.799 0 5.069 3.345 5.069 6.144 0 2.791-2.27 5.598-5.069 5.598-34.765 0-63.053-31.445-63.053-66.193 0-10.803 8.781-22.733 19.567-22.733h188.433c10.794 0 19.567 12.211 19.567 22.989-0.017 34.782-28.296 66.475-63.062 66.475zM293.299 233.822c-2.577-0.666-5.188-0.683-7.714-0.248-6.536-27.784-26.769-48.12-50.679-48.12-29.167 0-52.906 30.242-52.915 67.379 0 37.171 23.739 67.405 52.915 67.405 10.846 0 20.933-4.19 29.329-11.35-0.179 3.746 0.674 7.416 2.969 10.437-9.464 6.981-20.488 11.077-32.298 11.077-17.066 0-33.032-8.218-44.962-23.134-11.665-14.584-18.090-33.911-18.090-54.434 0-42.744 28.288-77.525 63.053-77.525 28.621 0 52.83 23.611 60.484 55.816-0.76 0.853-1.51 1.698-2.091 2.696zM331.529 227.166c-34.714 0-62.959 28.245-62.959 62.95 0 34.697 28.245 62.951 62.959 62.951 34.705 0 62.942-28.254 62.942-62.951 0-34.705-28.237-62.95-62.942-62.95zM331.529 340.625c-27.853 0-50.509-22.656-50.509-50.509s22.656-50.509 50.509-50.509c27.844 0 50.491 22.656 50.491 50.509s-22.656 50.509-50.491 50.509zM329.736 259.004c-3.43 0-6.221 2.782-6.221 6.229v49.784c0 3.447 2.791 6.238 6.221 6.238 3.439 0 6.221-2.791 6.221-6.238v-49.784c0-3.447-2.782-6.229-6.221-6.229zM354.637 283.904h-49.792c-3.447 0-6.229 2.791-6.229 6.221 0 3.439 2.782 6.221 6.229 6.221h49.792c3.43 0 6.221-2.782 6.221-6.221 0-3.43-2.791-6.221-6.221-6.221z" />
<glyph unicode="&#xe63e;" glyph-name="reports" data-tags="reports" d="M320.256 96h-149.589c-6.725 0-12.194 5.47-12.194 12.194v231.612c0 6.724 5.47 12.194 12.194 12.194h170.666c6.724 0 12.194-5.47 12.194-12.194v-212.651c0-5.103-2.748-11.289-6.545-14.703l-12.024-10.82c-3.627-3.251-9.805-5.632-14.703-5.632zM170.667 339.806v-231.62h149.589c1.861 0 5.163 1.263 6.545 2.509l12.024 10.812c1.195 1.075 2.509 4.045 2.509 5.649v212.65h-170.667zM316.954 309.333h-128c-1.681 0-3.047 1.365-3.047 3.047s1.365 3.047 3.047 3.047h128c1.681 0 3.046-1.365 3.046-3.047s-1.365-3.047-3.046-3.047zM316.954 278.861h-128c-1.681 0-3.047 1.365-3.047 3.047s1.365 3.046 3.047 3.046h128c1.681 0 3.046-1.365 3.046-3.046s-1.365-3.047-3.046-3.047zM316.954 248.38h-128c-1.681 0-3.047 1.365-3.047 3.047s1.365 3.047 3.047 3.047h128c1.681 0 3.046-1.365 3.046-3.047s-1.365-3.047-3.046-3.047zM249.907 213.026h-60.953c-1.681 0-3.047 1.374-3.047 3.046 0 1.681 1.365 3.046 3.047 3.046h60.953c1.681 0 3.047-1.365 3.047-3.046 0-1.673-1.365-3.046-3.047-3.046z" />
</font>
</defs>
</svg>
